<?xml version="1.0" encoding="UTF-8"?>
<svg width="482px" height="289px" viewBox="0 0 482 289" version="1.1" xmlns="http://www.w3.org/2000/svg" xmlns:xlink="http://www.w3.org/1999/xlink">
    <!-- Generator: Sketch 51.3 (57544) - http://www.bohemiancoding.com/sketch -->
    <title>register</title>
    <desc>Created with Sketch.</desc>
    <defs></defs>
    <g id="Page-1" stroke="none" stroke-width="1" fill="none" fill-rule="evenodd">
        <g id="43913-copy-4" transform="translate(-136.000000, -17.000000)">
            <g id="register" transform="translate(136.000000, 17.000000)">
                <polyline id="Fill-75" fill="#5B6D77" points="22 164.429302 21.9573646 179 14 174.570103 14.0426354 160 22 164.429302"></polyline>
                <polyline id="Fill-87" fill="#5B6D77" points="8 181.427931 7.95673003 196 0 191.571473 0.0426518312 177 8 181.427931"></polyline>
                <path d="M345.140845,289 C342.218892,289 339.292838,288.352837 337.055818,287.058512 L210.033779,213.553292 L212.975653,211.839662 L198.09051,203.226292 L203.015117,200.358105 L334.317843,276.339808 L334.385223,252.404776 L185.745303,166.389703 L334.385223,252.404776 C336.549589,253.657406 339.380725,254.283427 342.20776,254.283427 C345.03538,254.283427 347.858899,253.657406 350.009204,252.404776 L455.282703,191.085827 L478.62903,204.595786 C483.103068,207.185024 483.126505,211.382185 478.681762,213.970835 L353.204778,287.058512 C350.982407,288.352837 348.063383,289 345.140845,289 M342.861054,249.962354 C340.034019,249.962354 337.203469,249.336333 335.039689,248.083703 L189.791625,164.032434 L335.040274,248.083703 C337.204055,249.336333 340.034605,249.962354 342.861639,249.962354 C345.688674,249.962354 348.512779,249.336333 350.663083,248.083703 C348.512779,249.336333 345.688674,249.962354 342.861054,249.962354 M342.55755,246.222083 C339.72993,246.222083 336.899379,245.595474 334.735013,244.343432 L192.861814,162.244221 L334.735599,244.343432 C336.899379,245.595474 339.730515,246.221496 342.55755,246.221496 C345.384585,246.221496 348.208104,245.595474 350.358408,244.342845 L448.515397,187.169377 L350.358408,244.343432 C348.20869,245.595474 345.384585,246.222083 342.55755,246.222083 M359.933414,219.015414 L350.173845,213.367717 L367.092696,197.157527 C366.834894,197.008363 366.564788,196.852151 366.281205,196.688305 L361.073602,193.674477 L338.681144,206.717563 L329.655139,201.493869 L389.104897,166.86656 L403.33909,175.102907 C408.366817,178.012203 410.687622,180.952036 410.289787,183.920057 C409.954644,186.517517 407.634425,189.067408 403.334402,191.572667 L394.696859,196.603152 C390.754244,198.899346 385.969671,200.045681 380.345483,200.045681 C379.967569,200.045681 379.586725,200.040983 379.201779,200.030412 L359.933414,219.015414 M322.236883,197.200985 L296.545143,182.333276 L356.042945,147.67719 L381.735271,162.544899 L372.718642,167.79737 L356.052906,158.152768 L339.827191,167.603573 L352.003655,174.650128 L342.986439,179.902599 L330.809976,172.856043 L314.583675,182.306849 L331.249997,191.950863 L322.236883,197.200985 M278.524774,171.906441 L269.497598,166.682159 L319.931312,137.305558 L310.33287,131.751823 L319.348913,126.49994 L347.524928,142.804679 L338.508299,148.056562 L328.958488,142.52984 L278.524774,171.906441 M126.828728,165.404277 L31.3710445,110.16525 C26.8970057,107.576013 26.8735692,103.378265 31.3177263,100.789615 L38.6059097,96.5442984 L38.5813013,105.203475 L134.694623,160.82246 L126.828728,165.404277 M251.058301,152.630744 C248.374815,152.630744 245.681369,152.218486 242.976204,151.391034 C241.10128,150.818454 239.205848,149.981019 237.298112,148.878141 C233.762708,146.831533 231.704392,144.629888 231.11965,142.273207 C230.598187,140.318212 231.004811,138.30038 232.324289,136.220298 C233.643767,134.135519 235.791142,132.120036 238.762311,130.166803 L247.97698,134.782681 C244.893901,137.021324 243.304902,139.019188 243.21057,140.772752 C243.119753,142.014224 243.727932,143.015506 245.038621,143.773661 C245.113032,143.816531 245.189201,143.859401 245.2683,143.900509 C246.758279,144.709756 248.516606,145.114967 250.545626,145.114967 C251.290909,145.114967 252.073104,145.059764 252.892212,144.950533 C254.411487,144.764371 256.030367,144.172999 257.735962,143.179939 C260.207347,141.739973 261.530927,139.656955 261.710216,136.930298 C261.605924,134.918926 261.447141,131.905685 261.23797,127.888227 C261.125474,124.477997 261.58776,121.750753 262.627758,119.702971 C263.856419,117.436727 265.970397,115.427704 268.980822,113.67414 C273.657001,110.95042 278.72047,109.587385 284.171227,109.587385 C285.028419,109.587385 285.8944,109.620859 286.770927,109.688394 C290.713542,110.01961 294.351481,111.154199 297.692363,113.086878 C300.908444,114.948498 302.952698,116.954585 303.821608,119.111011 C304.495995,120.787056 304.389359,122.525939 303.493497,124.319436 C302.597634,126.118807 300.962934,127.835373 298.595842,129.474421 L288.383362,125.385317 C290.562962,123.820264 291.762914,122.309239 291.977944,120.854004 C292.128524,119.802218 291.427185,118.825601 289.866896,117.92298 C288.652883,117.220027 287.262509,116.870019 285.695775,116.870019 C285.123923,116.870019 284.52922,116.916413 283.910495,117.009788 C282.040258,117.286975 280.235057,117.934138 278.496651,118.947165 C275.775666,120.532184 274.181394,122.824268 273.724967,125.826938 C273.54099,126.967987 273.613058,128.480774 273.944099,130.359425 C274.303265,132.587496 274.472594,134.099696 274.442712,134.89015 C274.45736,137.471166 273.996832,139.73741 273.052924,141.690055 C272.610559,142.612057 272.145344,143.421891 271.639114,144.12132 C270.375883,145.854917 268.926332,147.216777 267.28343,148.212773 C263.203711,150.66283 258.576749,152.098685 253.40723,152.525037 C252.625621,152.595509 251.842254,152.630744 251.058301,152.630744 M159.389137,146.438655 L55.8300215,86.5115165 L159.389137,146.438655 M162.45874,144.650443 L58.9002105,84.7233041 L162.45874,144.650443 M213.876203,134.494336 L204.849027,129.271228 L264.298784,94.6433317 L273.32596,99.8670262 L213.876203,134.494336 M195.097662,119.646594 C195.056062,119.646594 195.015048,119.646594 194.973448,119.646594 C189.421913,119.627214 184.683041,118.486751 180.766793,116.220508 C176.786093,113.916679 174.798088,111.148327 174.795158,107.914276 C174.79633,104.681986 176.738049,101.930664 180.629103,99.6638335 L213.08229,80.7610481 C217.020217,78.4672032 221.760847,77.3214553 227.303007,77.3214553 C227.325271,77.3214553 227.347536,77.3214553 227.369801,77.3214553 C232.935983,77.3314388 237.697706,78.4771867 241.643836,80.7604609 C245.623949,83.063702 247.604338,85.8285309 247.593206,89.0543604 C247.577386,92.2772536 245.609302,95.0309246 241.688366,97.314786 L234.901724,101.267646 L225.542335,95.8513294 L232.518227,91.7886517 C233.941997,90.959438 234.648024,89.9563947 234.64568,88.7765856 C234.634548,87.5973637 233.917389,86.5949077 232.48483,85.7656939 C231.06516,84.9441145 229.359565,84.5336185 227.371559,84.5336185 C227.352223,84.5336185 227.332888,84.5336185 227.312967,84.5336185 C225.295666,84.5453637 223.578938,84.9629069 222.155753,85.7921207 L189.606476,104.750696 C188.182705,105.57991 187.476679,106.573557 187.478437,107.736335 C187.486054,108.897352 188.206728,109.892761 189.639287,110.721975 C191.073019,111.551189 192.793848,111.968732 194.807634,111.981651 C194.828141,111.981651 194.849234,111.981651 194.869741,111.981651 C196.856575,111.981651 198.548695,111.574679 199.953716,110.756036 L211.642113,103.947909 L206.630205,101.046835 L215.642148,95.7973013 L230.015202,104.114104 L209.235765,116.217571 C205.310727,118.504369 200.600565,119.646594 195.097662,119.646594 M159.782285,103.19269 L134.091131,88.3249812 L193.589519,53.6694831 L219.280673,68.5360176 L210.26463,73.7879006 L193.598894,64.1444733 L177.373179,73.5952787 L189.549643,80.641834 L180.533013,85.8943042 L168.355964,78.8471617 L152.130249,88.2985544 L168.795399,97.942569 L159.782285,103.19269 M125.143054,83.1470932 L115.382899,77.4993957 L132.30175,61.2886187 C132.047463,61.1418033 131.778529,60.9861789 131.490259,60.8193965 L126.283242,57.8055685 L103.890784,70.8492421 L94.8682949,65.6278968 L154.318052,31 L168.54873,39.2345861 C173.579387,42.1456432 175.896676,45.0831271 175.499426,48.0511487 C175.163698,50.6491952 172.846994,53.2014354 168.547558,55.7061073 L159.910015,60.7371798 C155.970329,63.0321993 151.191615,64.1779472 145.569185,64.1779472 C145.186583,64.1779472 144.801052,64.1726618 144.410247,64.1620911 L125.143054,83.1470932" id="Fill-3" fill="#DFDFDF"></path>
                <path d="M159.429101,45.2612216 C162.861153,47.3199172 162.856474,49.3895503 159.417988,51.4658675 L150.747786,56.7007146 C149.326538,57.5587069 147.613436,57.9907413 145.595614,57.999856 C143.58598,58.0089706 141.867614,57.5854432 140.437007,56.7274509 L135,53.4662293 L153.992094,42 L159.429101,45.2612216" id="Fill-4" fill="#4CA496"></path>
                <path d="M38.09805,82.1579652 L38.0783352,82.1472103 C37.8157065,81.9888742 37.5734967,81.8245632 37.3453688,81.6572647 C37.2658057,81.6005027 37.1960999,81.5407533 37.1207614,81.4821988 C36.9771253,81.3692723 36.8384179,81.2563458 36.7095679,81.1404318 C36.6222597,81.0609651 36.5419925,80.9814983 36.4617253,80.901434 C36.359631,80.7998599 36.2624655,80.6970908 36.1716368,80.5943217 C36.0786958,80.4879677 35.9956122,80.3810162 35.9153449,80.2734671 C35.8315572,80.1623331 35.7484736,80.0529916 35.6780638,79.9406626 L35.5977966,79.8098113 C35.4949982,79.6317579 35.4027613,79.451912 35.3302392,79.2708711 C35.2746154,79.1310574 35.2408187,78.9888536 35.2042056,78.8472474 C35.1851949,78.7773405 35.1563269,78.7086286 35.142949,78.6381243 C35.1014072,78.4260137 35.0802843,78.2133056 35.0809884,78 L35.000017,102.352687 C34.9993129,102.56659 35.0204359,102.7787 35.0619777,102.991408 C35.0753556,103.061315 35.1042236,103.130027 35.1232343,103.199934 C35.1598474,103.34154 35.1936441,103.483744 35.2492679,103.623558 L35.2541966,103.639093 C35.3253105,103.814756 35.4168433,103.988627 35.5168253,104.1619 L35.5963884,104.293349 L35.6907376,104.4481 C35.7322794,104.508447 35.7886072,104.566404 35.8329654,104.626154 C35.9146409,104.733703 35.9977245,104.840654 36.0906654,104.947008 L36.1843105,105.064715 C36.2434548,105.129244 36.3173851,105.190786 36.380754,105.254121 C36.4610212,105.334185 36.5405843,105.414249 36.6285966,105.493119 L36.7328032,105.593498 C36.8271524,105.675354 36.9376958,105.754821 37.0397901,105.834885 C37.1151286,105.89344 37.1848343,105.953189 37.2643975,106.010549 L37.332695,106.064921 C37.5396999,106.212502 37.7607868,106.357096 37.9952516,106.498702 L37.9966598,106.499299 L38.0191909,106.511847 C38.2452065,106.647478 38.4824877,106.778927 38.7338508,106.907388 L38.9190287,107 L39,82.6473133 C38.6796352,82.4895747 38.3796893,82.3264587 38.09805,82.1579652" id="Fill-5" fill="#7E93A3"></path>
                <path d="M473.541734,203.900471 C473.583199,203.816635 473.635389,203.7322 473.669705,203.647167 C473.724039,203.511233 473.755496,203.374102 473.792672,203.236372 C473.810545,203.167506 473.839857,203.09924 473.853441,203.029177 C473.894906,202.822582 473.915639,202.615388 473.916354,202.406996 L474,178 C473.999285,178.207793 473.977837,178.415586 473.937087,178.62278 C473.920643,178.700029 473.888472,178.777278 473.867024,178.855125 C473.831993,178.983873 473.802681,179.112621 473.751921,179.240171 C473.721895,179.316222 473.673995,179.389878 473.638963,179.465929 C473.57748,179.593479 473.523146,179.721628 473.445219,179.847981 C473.393029,179.93481 473.321537,180.018646 473.261483,180.104279 C473.182127,180.217457 473.10992,180.331234 473.017694,180.442616 L473.009115,180.451598 C472.86613,180.622264 472.701698,180.790534 472.527256,180.955811 L472.40429,181.070187 C472.297766,181.167795 472.175514,181.26241 472.056836,181.357025 C471.93101,181.458227 471.804468,181.559428 471.666488,181.657636 C471.528508,181.755844 471.379803,181.851656 471.229669,181.946271 C471.121716,182.015136 471.017337,182.0846 470.902949,182.15107 C470.643432,182.301974 470.373905,182.450483 470.082216,182.592405 L470,207 C470.251653,206.87724 470.491868,206.750289 470.719929,206.620344 L470.819303,206.558066 C470.934406,206.491596 471.038785,206.422132 471.146738,206.353267 C471.255407,206.285 471.373369,206.219129 471.474888,206.148468 L471.584272,206.064632 C471.722252,205.966424 471.848079,205.865821 471.973905,205.76462 C472.050402,205.70294 472.139053,205.643657 472.211975,205.581379 L472.322073,205.477183 L472.444325,205.363405 C472.619482,205.196932 472.783914,205.02926 472.927614,204.857397 L472.934763,204.849612 L472.936908,204.847216 C473.033423,204.732242 473.10706,204.613075 473.189991,204.496304 C473.24647,204.415462 473.313673,204.336417 473.363003,204.254976 C473.434495,204.138205 473.483825,204.019637 473.541734,203.900471" id="Fill-6" fill="#546870"></path>
                <path d="M409.617774,184.580668 C409.283003,187.183036 406.965354,189.737746 402.670095,192.24774 L394.042119,197.287733 C389.839332,199.743008 384.680221,200.886215 378.564203,200.721471 L359.31718,219.742353 L349.568422,214.083982 L366.468532,197.843156 C366.211016,197.693709 365.941209,197.537203 365.657941,197.373047 L360.456106,194.353523 L338.088451,207.42126 L329.072445,202.187693 L388.45635,167.494939 L402.674777,175.746854 C407.696935,178.661647 410.015169,181.607037 409.617774,184.580668 M295.999124,182.990887 L355.431021,148.269303 L381.094888,163.165112 L372.088246,168.427509 L355.440971,158.764679 L339.233229,168.233346 L351.396205,175.293219 L342.388978,180.555616 L330.226002,173.495743 L314.017675,182.96441 L330.665536,192.626652 L321.662405,197.886695 L295.999124,182.990887 M268.981539,167.310191 L319.359388,137.878069 L309.771578,132.313837 L318.777635,127.052028 L346.92244,143.387583 L337.915798,148.649391 L328.376565,143.112225 L277.998716,172.544346 L268.981539,167.310191 M252.908993,153.126312 C249.454175,153.438738 245.981212,153.061003 242.489522,151.990166 C240.616674,151.416504 238.723342,150.577486 236.817719,149.472523 C233.286231,147.422048 231.230195,145.216242 230.646101,142.855106 C230.125215,140.896416 230.531389,138.874771 231.849406,136.790758 C233.167422,134.702038 235.312418,132.682746 238.280297,130.725822 L247.484758,135.350424 C244.405094,137.593297 242.817856,139.594938 242.723628,141.351816 C242.632912,142.595634 243.240417,143.598808 244.549654,144.358396 C244.623983,144.401347 244.700068,144.444298 244.779078,144.485484 C246.81463,145.593977 249.349412,145.945823 252.394546,145.537493 C253.912137,145.350979 255.529224,144.758489 257.232931,143.763552 C259.701578,142.320864 261.023692,140.23391 261.202783,137.5021 C261.098606,135.486926 260.939999,132.467991 260.731059,128.442939 C260.618688,125.026264 261.080462,122.293866 262.119308,120.242213 C263.346608,117.971687 265.458244,115.958867 268.465335,114.201989 C273.870842,111.044197 279.793138,109.711535 286.235734,110.20871 C290.173982,110.540551 293.807892,111.677285 297.145072,113.613617 C300.357592,115.478756 302.399581,117.488634 303.267529,119.649135 C303.941169,121.328348 303.83465,123.070517 302.93978,124.867404 C302.04491,126.670175 300.412021,128.389986 298.047551,130.032131 L287.846383,125.935299 C290.023569,124.367288 291.222191,122.853407 291.436984,121.395422 C291.587397,120.341648 290.886835,119.363186 289.328274,118.458859 C287.673145,117.498047 285.689682,117.194448 283.378471,117.54394 C281.510305,117.821652 279.707104,118.470038 277.970623,119.484979 C275.252653,121.072994 273.660147,123.369409 273.204225,126.377754 C273.020452,127.520961 273.09244,129.036606 273.423114,130.918808 C273.781882,133.15109 273.951023,134.666148 273.921175,135.458096 C273.935806,138.04399 273.475788,140.314517 272.532926,142.270853 C272.091051,143.194597 271.626351,144.005961 271.120682,144.706712 C269.858851,146.443586 268.410906,147.80802 266.769823,148.805898 C262.694623,151.260585 258.072786,152.699154 252.908993,153.126312 M204.404577,129.828555 L263.788483,95.1352129 L272.80566,100.36878 L213.421754,135.061533 L204.404577,129.828555 M180.349018,116.753169 C176.372728,114.444986 174.386924,111.671402 174.383998,108.431238 C174.385169,105.19284 176.324737,102.436318 180.211481,100.165203 L212.62872,81.2266924 C216.578088,78.9196866 221.335121,77.7711849 226.900405,77.7805989 C232.460422,77.7906012 237.21687,78.9385145 241.158629,81.226104 C245.134334,83.5336981 247.11253,86.3037525 247.10141,89.5356787 C247.085607,92.764663 245.119702,95.5235383 241.20311,97.8117161 L234.423986,101.772047 L225.074964,96.3454936 L232.043128,92.2751377 C233.465322,91.4443567 234.170566,90.4394177 234.168225,89.2573788 C234.157105,88.0759283 233.440741,87.0715776 232.009768,86.2407967 C230.577625,85.4100157 228.85519,84.9987439 226.843635,85.0063927 C224.828567,85.0181601 223.113741,85.4364925 221.692133,86.2672734 L189.17891,105.26168 C187.756716,106.092461 187.051472,107.087986 187.053228,108.252962 C187.060836,109.416173 187.780712,110.413463 189.211685,111.244244 C190.643828,112.075025 192.362751,112.493357 194.374307,112.506301 C196.385277,112.514539 198.096592,112.107385 199.514689,111.278369 L211.190139,104.457375 L206.183783,101.550819 L215.185743,96.2913634 L229.542876,104.623885 L208.786456,116.750227 C204.835918,119.058409 200.090004,120.203381 194.539937,120.18573 C188.994552,120.166313 184.260929,119.023696 180.349018,116.753169 M159.387755,103.700729 L133.725058,88.8049209 L193.157541,54.0839254 L218.820238,68.978557 L209.814181,74.2403659 L193.166905,64.5787129 L176.959164,74.0473799 L189.12214,81.1072529 L180.115498,86.3696501 L167.951937,79.3091888 L151.744195,88.7784442 L168.390885,98.4406855 L159.387755,103.700729 M115.037549,77.9588755 L131.937659,61.7174609 C131.683654,61.570368 131.415018,61.4144495 131.127067,61.2473519 L125.925818,58.2278279 L103.558163,71.2961535 L94.5456684,66.06494 L153.929574,31.371598 L168.144489,39.6217471 C173.169573,42.538306 175.484296,45.4813417 175.087487,48.4549726 C174.75213,51.0579294 172.437992,53.6149931 168.143318,56.1243988 L159.515343,61.1649798 C155.312555,63.6208436 150.153445,64.7628732 144.032744,64.596364 L124.786892,83.6172469 L115.037549,77.9588755 M456.742721,173.495155 L174.852795,9.88249551 C170.529443,7.3725015 163.541965,7.3725015 159.246706,9.88249551 L52.2070183,72.4175901 C47.9111737,74.9269957 47.9339991,78.9955866 52.2579364,81.5049922 L334.147277,245.11824 C338.470629,247.627057 345.456936,247.627646 349.752781,245.117652 L456.793639,182.582557 C461.088898,180.073151 461.065488,176.003972 456.742721,173.495155" id="Fill-7" fill="#4CA496"></path>
                <path d="M394.430177,181.261218 C397.86313,183.319911 397.854941,185.387111 394.415554,187.463426 L385.744555,192.698874 C384.323175,193.556866 382.609331,193.9889 380.596003,193.999837 C378.585599,194.00956 376.863566,193.583602 375.437507,192.727434 L370,189.466216 L388.99267,178 L394.430177,181.261218" id="Fill-8" fill="#4CA496"></path>
                <path d="M464.33012,181.99761 L350.83154,247.816803 C346.523934,250.314857 339.515784,250.315443 335.180591,247.816803 L45.7205044,81.0498569 C41.384138,78.5512168 41.361834,74.5004445 45.66944,72.0029758 L159.16802,6.18319703 C163.475626,3.68572838 170.483189,3.68572838 174.818968,6.18319703 L464.279055,172.951315 C468.614835,175.449369 468.637726,179.499556 464.33012,181.99761 M471.732699,172.558303 L175.474588,1.87354077 C171.138222,-0.62451359 164.131246,-0.62451359 159.823053,1.87354077 L38.2157967,72.3954017 C33.9081907,74.8934561 33.9310816,78.9436427 38.2668611,81.4422827 L334.524971,252.126459 C338.861338,254.624514 345.868901,254.624514 350.176507,252.126459 L471.783763,181.604598 C476.091956,179.10713 476.069065,175.056357 471.732699,172.558303" id="Fill-9" fill="#4CA496"></path>
                <path d="M135.452283,52.5760442 L154.554227,41.5250853 L160.022851,44.6680293 C163.474272,46.6526459 163.470742,48.6472178 160.011673,50.6476458 L151.291054,55.692636 C149.861541,56.5195108 148.138478,56.9358762 146.108922,56.9446603 C144.087602,56.9528588 142.359244,56.5452774 140.920906,55.7189883 L135.452283,52.5760442 Z M160.304047,60.6532991 L168.976427,55.6364179 C173.293204,53.138811 175.619252,50.5937701 175.956334,48.0030519 C176.354598,45.0434024 174.028551,42.1147899 168.976427,39.2113585 L154.688943,31 L95,65.5302206 L104.058878,70.736838 L126.541651,57.7311283 L131.769669,60.7352838 C132.059101,60.9015958 132.329708,61.0567812 132.584432,61.2037681 L115.596756,77.3682332 L125.396275,83 L144.741766,64.0685496 C150.893967,64.2342759 156.080218,63.0970303 160.304047,60.6532991 Z" id="Fill-10" fill="#FBFBFB"></path>
                <polyline id="Fill-11" fill="#FBFBFB" points="168.189294 80.4206738 180.339083 87.535071 189.334358 82.2320317 177.185738 75.1182274 193.375129 65.5758399 210.00414 75.3121109 219 70.0102574 193.365191 55 134 89.9891496 159.635394 105 168.627161 99.6999253 151.999319 89.9624684 168.189294 80.4206738"></polyline>
                <path d="M230.372609,104.586725 L215.960279,96.3338612 L206.922754,101.543037 L211.94915,104.421807 L200.228335,111.178176 C198.804729,111.998684 197.086765,112.401945 195.067981,112.393787 C193.048609,112.380966 191.323007,111.96605 189.886475,111.143212 C188.449354,110.320955 187.726094,109.332617 187.719043,108.181108 C187.716106,107.027852 188.424678,106.041261 189.852397,105.218422 L222.492537,86.4056001 C223.919081,85.5827613 225.641158,85.1684281 227.663467,85.1567732 C229.682839,85.1491975 231.412553,85.5565376 232.849674,86.3793764 C234.286206,87.2022153 235.005354,88.1969644 235.01593,89.3677032 C235.018867,90.538442 234.310295,91.5331912 232.883163,92.35603 L225.887924,96.387474 L235.273859,101.76215 L242.078736,97.8396796 C246.010546,95.5733764 247.98409,92.8408755 247.999953,89.6427598 C248.011116,86.4417304 246.025235,83.6987401 242.034083,81.4126235 C238.07642,79.146903 233.302666,78.0105463 227.720458,78.0000569 C222.134138,77.9907329 217.358034,79.1276724 213.392733,81.4132062 L180.850125,100.170668 C176.947692,102.419488 175.000588,105.150241 175,108.357681 C175.002938,111.566869 176.996457,114.313938 180.988197,116.599472 C184.915895,118.848876 189.666735,119.98057 195.234254,119.999801 C200.805299,120.017283 205.57024,118.883258 209.536128,116.597141 L230.372609,104.586725" id="Fill-12" fill="#FBFBFB"></path>
                <polyline id="Fill-13" fill="#FBFBFB" points="263.03562 96 204 130.757365 212.963798 136 272 101.243225 263.03562 96"></polyline>
                <path d="M271.540529,144.498813 C272.044867,143.800681 272.507809,142.991669 272.948012,142.070018 C273.886722,140.119355 274.345,137.855413 274.331006,135.277604 C274.360159,134.488539 274.192241,132.976115 273.834248,130.750893 C273.504825,128.87415 273.433692,127.362899 273.616187,126.223008 C274.070966,123.223387 275.656862,120.933632 278.364547,119.350221 C280.095622,118.338223 281.891416,117.691718 283.751929,117.414812 C286.054393,117.066333 288.03035,117.369052 289.679215,118.327663 C291.231295,119.229368 291.930955,120.204407 291.781111,121.255711 C291.566548,122.708295 290.373045,124.218372 288.203516,125.781836 L298.366661,129.866788 C300.7216,128.229991 302.348309,126.515168 303.239793,124.717624 C304.131276,122.925361 304.236808,121.188245 303.566301,119.514488 C302.701638,117.360839 300.667959,115.355616 297.467015,113.495886 C294.14188,111.56517 290.521723,110.432319 286.598379,110.100853 C280.180164,109.605707 274.280281,110.933918 268.895814,114.082552 C265.89952,115.834335 263.795876,117.841318 262.57322,120.10526 C261.537723,122.150376 261.078279,124.875438 261.190225,128.281618 C261.398374,132.295583 261.55638,135.305764 261.65958,137.315094 C261.482333,140.039568 260.165806,142.119884 257.705918,143.558388 C256.008659,144.551026 254.397692,145.141798 252.88526,145.327185 C249.851651,145.734331 247.327044,145.383505 245.298613,144.278813 C245.220485,144.23716 245.144105,144.19492 245.070058,144.151507 C243.765192,143.394122 243.159986,142.393857 243.251525,141.153646 C243.345396,139.40245 244.926044,137.406027 247.993471,135.169658 L238.825009,130.559053 C235.867779,132.509716 233.730318,134.523152 232.417289,136.605815 C231.10426,138.683784 230.700207,140.69898 231.219121,142.652577 C231.800422,145.007452 233.849843,147.206274 237.367384,149.250804 C239.265795,150.353148 241.151962,151.189733 243.017722,151.761146 C246.496781,152.828877 249.957183,153.205516 253.398344,152.894584 C258.542595,152.468078 263.146941,151.034854 267.207301,148.586112 C268.84159,147.591714 270.284639,146.231236 271.540529,144.498813" id="Fill-14" fill="#FBFBFB"></path>
                <polyline id="Fill-15" fill="#FBFBFB" points="336.987114 148.838384 346 143.517855 317.833854 127 308.820968 132.321124 318.416634 137.948046 268 167.708028 277.024014 173 327.440062 143.240019 336.987114 148.838384"></polyline>
                <path d="M395.00891,187.646982 L386.28874,192.691802 C384.859889,193.518649 383.136326,193.935 381.110993,193.946126 C379.089189,193.954324 377.35739,193.545 375.923245,192.71991 L370.454903,189.577072 L389.555274,178.527072 L395.023616,181.66991 C398.475447,183.653874 398.4678,185.646036 395.00891,187.646982 Z M403.977319,176.212838 L389.687042,168 L330,202.528468 L339.063117,207.737252 L361.544142,194.731982 L366.772479,197.736622 C367.057779,197.900586 367.327784,198.055766 367.587201,198.20509 L350.600988,214.368423 L360.399414,220 L379.743907,201.069189 C385.891674,201.233153 391.077068,200.095946 395.301268,197.651712 L403.972613,192.635586 C408.290344,190.138063 410.619213,187.594865 410.956278,185.00482 C411.355109,182.045856 409.025064,179.114414 403.977319,176.212838 Z" id="Fill-16" fill="#FBFBFB"></path>
                <polyline id="Fill-17" fill="#FBFBFB" points="313.999443 181.962647 330.189529 172.420965 342.338817 179.534685 351.334739 174.232302 339.186035 167.118582 355.375537 157.576307 372.004078 167.312463 381 162.010672 355.365014 147 296 181.988735 321.634986 197 330.627399 191.699395 313.999443 181.962647"></polyline>
                <path d="M456.354324,181.971883 L349.28106,244.381917 C344.984524,246.88628 337.994969,246.88628 333.670332,244.381917 L51.6971951,81.0974072 C47.3719725,78.5930436 47.3491403,74.5326275 51.6462619,72.0282639 L158.718354,9.61823009 C163.014891,7.11386645 170.004446,7.11386645 174.329083,9.61881728 L456.302219,172.90274 C460.626857,175.406516 460.650274,179.467519 456.354324,181.971883 M462.742047,173.067153 L174.02524,5.87783234 C169.700603,3.37405589 162.711048,3.37405589 158.414512,5.87783234 L45.2076048,71.8638508 C40.9110687,74.3676272 40.9339008,78.4286305 45.2579526,80.9329941 L333.975345,248.121727 C338.298812,250.626091 345.288367,250.626091 349.585488,248.121727 L462.792395,182.136296 C467.088931,179.631932 467.066099,175.570929 462.742047,173.067153" id="Fill-18" fill="#FBFBFB"></path>
                <polyline id="Fill-19" fill="#326B60" points="350.068291 253.973983 350 278 470.932876 207.026017 471 183 350.068291 253.973983"></polyline>
                <polyline id="Fill-20" fill="#326B60" points="333 253.196423 332.932575 277 37 106.803577 37.0674248 83 333 253.196423"></polyline>
                <path d="M350.186289,254.406647 C350.114596,254.439065 350.039319,254.468071 349.967029,254.49992 C349.765095,254.586937 349.560173,254.67111 349.35107,254.749596 C349.242336,254.790545 349.131212,254.828651 349.020089,254.866756 C348.838468,254.929886 348.655651,254.990172 348.469251,255.047046 C348.334827,255.087995 348.198014,255.127238 348.0612,255.165343 C347.89093,255.211411 347.720063,255.255204 347.547403,255.296153 C347.370561,255.338808 347.193122,255.379189 347.01389,255.416157 C346.863336,255.447437 346.710989,255.475874 346.558045,255.503742 C346.277249,255.554929 345.993466,255.598153 345.707292,255.636827 C345.580636,255.653889 345.455173,255.673226 345.327919,255.688013 C345.111646,255.712469 344.894179,255.729531 344.676114,255.747162 C344.524364,255.759674 344.373212,255.774461 344.220866,255.782992 C343.987267,255.796642 343.753669,255.801761 343.519473,255.806879 C343.380867,255.809723 343.242859,255.817117 343.104253,255.817685 C342.768493,255.818254 342.432732,255.809154 342.097569,255.794367 L341.972705,255.790955 C341.596318,255.771618 341.221724,255.740337 340.850118,255.699388 C340.725253,255.686307 340.602181,255.665833 340.478511,255.649339 C340.237146,255.618627 339.995781,255.588484 339.757403,255.548104 C339.614017,255.523648 339.474217,255.493505 339.332624,255.466206 C339.117546,255.425257 338.902468,255.383739 338.691572,255.335396 C338.572085,255.308665 338.454987,255.27511 338.337291,255.244967 C338.069639,255.177287 337.805571,255.105057 337.546283,255.024865 C337.398716,254.979366 337.252941,254.931592 337.108958,254.882681 C336.947052,254.827513 336.787536,254.770639 336.631007,254.710922 C336.465517,254.647223 336.303611,254.581819 336.143497,254.514139 C336.025204,254.462952 335.906912,254.411766 335.790411,254.358873 C335.544266,254.243988 335.301109,254.127397 335.068705,254 L335,277.180608 C335.178634,277.278431 335.362048,277.372273 335.549046,277.463271 C335.605205,277.490002 335.665546,277.51332 335.722303,277.538913 C335.838206,277.592943 335.955902,277.643561 336.074194,277.694747 C336.165005,277.732853 336.251634,277.775508 336.344237,277.813613 C336.414734,277.841481 336.490012,277.864231 336.562302,277.89153 C336.718831,277.951248 336.878347,278.00869 337.039058,278.063289 C337.124491,278.092295 337.205145,278.126988 337.290579,278.153718 C337.351518,278.173624 337.416041,278.186705 337.47698,278.205474 C337.736268,278.285666 338.000933,278.357895 338.268586,278.425575 C338.352227,278.446618 338.430492,278.474486 338.514731,278.494392 L338.62227,278.516573 C338.833165,278.564916 339.048841,278.605296 339.263918,278.646814 C339.405511,278.674682 339.545312,278.704256 339.6881,278.728712 C339.926478,278.769093 340.16844,278.799236 340.409805,278.830516 C340.520332,278.844166 340.629663,278.86464 340.741384,278.877153 L340.780815,278.880565 C341.153019,278.920945 341.527613,278.952226 341.903402,278.971563 L342.028864,278.974976 C342.363429,278.990331 342.69919,278.999431 343.03495,278.998294 L343.088122,279 C343.208805,278.998863 343.329487,278.989763 343.45017,278.987488 C343.684366,278.982369 343.918562,278.977819 344.15216,278.963601 C344.303909,278.955638 344.455061,278.939714 344.606811,278.92777 C344.825473,278.910139 345.042941,278.893077 345.259214,278.868622 L345.381689,278.857816 C345.468317,278.846441 345.551958,278.82881 345.638587,278.817435 C345.924163,278.778761 346.207946,278.735537 346.488742,278.684919 C346.558045,278.672407 346.62914,278.665582 346.697845,278.651933 C346.781487,278.636008 346.862141,278.614396 346.944588,278.596765 C347.124417,278.559228 347.301856,278.519417 347.4781,278.476761 C347.564729,278.456287 347.65315,278.440362 347.739181,278.41875 C347.824614,278.396569 347.907061,278.368701 347.991897,278.345383 C348.129308,278.307846 348.264927,278.269172 348.399948,278.227654 C348.477017,278.203767 348.557074,278.18443 348.632949,278.159975 C348.741085,278.12585 348.845039,278.084332 348.951383,278.047364 C349.06191,278.009259 349.173033,277.971154 349.281767,277.930773 L349.432919,277.876743 C349.591837,277.81532 349.744184,277.747071 349.898921,277.67996 C349.971211,277.648679 350.045891,277.619674 350.117583,277.586687 L350.17195,277.564506 C350.410926,277.453602 350.643927,277.337011 350.869758,277.214164 L350.9301,277.181177 L351,254 C350.738322,254.144459 350.46589,254.27925 350.186289,254.406647" id="Fill-21" fill="#326B60"></path>
                <polyline id="Fill-22" fill="#DFDFDF" points="103.048112 277 102.937977 276.935894 27 233.154715 48.3354519 220.773514 40.7509008 216.400219 56.1608853 207.457195 48.5769231 203.085076 64.0016314 194.13323 57.2380823 190.147508 57.2398492 190.144568 56.9129797 189.956368 72.3235531 181.012756 64.7425357 176.642401 72.2782037 172.269106 64.6936525 167.896987 86.9172472 155 109.690336 168.129296 102.566347 172.263812 109.710361 176.381862 127.311254 166.1679 210.94804 214.387656 206.370099 217.044804 213.946994 221.413394 206.415449 225.783748 214 230.156456 162.364037 260.121997 154.779485 255.74929 132.636578 268.598639 125.056149 264.228284 103.048112 277"></polyline>
                <path d="M211.028994,214 L127,166.481893 L134.943787,161.960112 L203.940828,200.977712 L198.967456,203.808317 L214,212.308824 L211.028994,214 M190.586391,165.128025 L159.882249,147.764781 L159.88284,147.764781 L190.586982,165.128025 L190.586391,165.128025 M193.686982,163.363244 L162.98284,146 L193.686982,163.363244" id="Fill-23" fill="#DFDFDF"></path>
                <polyline id="Fill-24" fill="#4CA496" points="193.499608 163 163 145.603049 174.500392 139 182.069749 143.318026 189.582092 139.004646 204.9471 147.76903 197.434757 152.081248 205 156.396951 193.499608 163"></polyline>
                <polyline id="Fill-25" fill="#93A9BA" points="185.889076 167 155 149.363053 159.111519 147 190 164.636947 185.889076 167"></polyline>
                <polyline id="Fill-26" fill="#E3E3E3" points="188.973744 165 159 147.752969 162.026256 146 192 163.247031 188.973744 165"></polyline>
                <polyline id="Fill-27" fill="#8091A1" points="203.428468 201 135 161.895411 155.679652 150 186.131361 167.401954 175.731971 173.38364 191.453412 182.367786 183.744096 186.802064 206 199.520552 203.428468 201"></polyline>
                <polyline id="Fill-28" fill="#424F57" points="178 91 177.957046 105.57344 170 110 170.042954 95.4265596 178 91"></polyline>
                <polyline id="Fill-29" fill="#5B6D77" points="169 95.9950147 168.96206 111 155 102.004985 155.03849 87 169 95.9950147"></polyline>
                <polyline id="Fill-30" fill="#4CA496" points="177 91.6282144 169.633432 96 155 87.3717856 162.365992 83 177 91.6282144"></polyline>
                <polyline id="Fill-31" fill="#424F57" points="82 112 81.9597238 126.758131 75 131 75.0397008 116.241869 82 112"></polyline>
                <polyline id="Fill-32" fill="#5B6D77" points="45 115.430215 44.9573646 130 37 125.569785 37.0426354 111 45 115.430215"></polyline>
                <polyline id="Fill-33" fill="#424F57" points="59 108 58.9596093 121.968843 45 130 45.0398137 116.031157 59 108"></polyline>
                <polyline id="Fill-34" fill="#5B6D77" points="74 116.916735 73.9609717 132 60 123.083265 60.0390283 108 74 116.916735"></polyline>
                <polyline id="Fill-35" fill="#929292" points="171 96 170.959373 110.585165 104 150 104.040627 135.414835 171 96"></polyline>
                <polyline id="Fill-36" fill="#424F57" points="176 100 175.959577 114.255185 147 131 147.041008 116.744815 176 100"></polyline>
                <polyline id="Fill-37" fill="#929292" points="75 117 74.9597006 131.758934 68 136 68.0397237 121.239859 75 117"></polyline>
                <polyline id="Fill-38" fill="#B2B2B2" points="53 120.42807 52.9573416 135 45 130.572526 45.0420402 116 53 120.42807"></polyline>
                <polyline id="Fill-39" fill="#5B6D77" points="76 124.429759 75.9567467 139 68 134.570837 68.0426354 120 76 124.429759"></polyline>
                <polyline id="Fill-40" fill="#424F57" points="53 120 52.9570896 134.569646 45 139 45.0429104 124.429759 53 120"></polyline>
                <polyline id="Fill-41" fill="#5B6D77" points="45 124.427931 44.9573416 139 37 134.571473 37.0426584 120 45 124.427931"></polyline>
                <polyline id="Fill-42" fill="#4CA496" points="53 120.498789 45.0236889 125 37 120.501211 44.9756877 116 53 120.498789"></polyline>
                <polyline id="Fill-43" fill="#929292" points="45.55 125 45.481 138.84152 45 139 45.069 125.15848 45.55 125"></polyline>
                <polyline id="Fill-44" fill="#ECECEC" points="45 125.553 45.01 125 45.481 125.273 45 125.553"></polyline>
                <polyline id="Fill-45" fill="#B2B2B2" points="53 129.427792 52.95673 144 45 139.571612 45.0426518 125 53 129.427792"></polyline>
                <polyline id="Fill-46" fill="#424F57" points="164 126 163.956468 140.569785 156 145 156.043532 130.430215 164 126"></polyline>
                <polyline id="Fill-47" fill="#5B6D77" points="157 130.298332 156.958302 145 141 135.701668 141.041698 121 157 130.298332"></polyline>
                <polyline id="Fill-48" fill="#929292" points="157 130 156.957066 144.572526 149 149 149.043556 134.42807 157 130"></polyline>
                <polyline id="Fill-49" fill="#5B6D77" points="37 138.428527 36.9567267 153 29 148.572069 29.0426551 134 37 138.428527"></polyline>
                <polyline id="Fill-50" fill="#424F57" points="53 129 52.9573106 143.799022 37 153 37.0426894 138.202189 53 129"></polyline>
                <polyline id="Fill-51" fill="#4CA496" points="53 129.267294 36.9135202 138 29 133.732132 45.0858651 125 53 129.267294"></polyline>
                <polyline id="Fill-52" fill="#5B6D77" points="112 138.428388 111.956727 153 104 148.571612 104.042655 134 112 138.428388"></polyline>
                <polyline id="Fill-53" fill="#4CA496" points="179 100.346849 149.713789 117.148193 165.585645 126.194576 158.005782 130.543764 142.133926 121.497382 111.626074 139 104 134.653151 171.373926 96 179 100.346849"></polyline>
                <polyline id="Fill-54" fill="#424F57" points="139 121 138.960631 135.390585 110 153 110.039369 138.609415 139 121"></polyline>
                <polyline id="Fill-55" fill="#929292" points="74 125 73.9604576 139.442419 50 154 50.0395424 139.557581 74 125"></polyline>
                <polyline id="Fill-56" fill="#B2B2B2" points="45 142.268072 44.9546228 157 37 152.731928 37.044729 138 45 142.268072"></polyline>
                <polyline id="Fill-57" fill="#5B6D77" points="58 143.429759 57.9567501 158 50 153.570241 50.0432499 139 58 143.429759"></polyline>
                <polyline id="Fill-58" fill="#424F57" points="154 87 153.959405 101.395551 58 158 58.0405949 143.604449 154 87"></polyline>
                <polyline id="Fill-59" fill="#4CA496" points="154 87.4497751 56.6311252 145 49.0531261 140.550225 74.0132124 125.79744 66.4352132 121.347665 73.5495174 117.142672 58.8148459 108.490299 44.5779992 116.905072 37 112.454698 58.7654165 99.5907485 81.0786756 112.693496 73.9602523 116.900284 81.5382515 121.350059 146.422001 83 154 87.4497751"></polyline>
                <polyline id="Fill-60" fill="#929292" points="149 134 148.958442 148.369053 127 161 127.040964 146.630359 149 134"></polyline>
                <polyline id="Fill-61" fill="#5B6D77" points="170 147.918286 169.960983 163 156 154.081714 156.039017 139 170 147.918286"></polyline>
                <polyline id="Fill-62" fill="#424F57" points="179 143 178.956447 157.571612 171 162 171.043553 147.428388 179 143"></polyline>
                <polyline id="Fill-63" fill="#424F57" points="45 142 44.9578159 156.812609 29 166 29.0421841 151.187997 45 142"></polyline>
                <polyline id="Fill-64" fill="#4CA496" points="46 142.268091 29.9602622 150.974745 29.91356 151 22 146.731909 38.0870545 138 38.4594429 138.201466 46 142.268091"></polyline>
                <polyline id="Fill-65" fill="#424F57" points="29.145 151 29.076 164.974285 29 165 29.069 151.025144 29.145 151"></polyline>
                <polyline id="Fill-66" fill="#5B6D77" points="30 151.430215 29.9573646 166 22 161.569785 22.0426354 147 30 151.430215"></polyline>
                <polyline id="Fill-67" fill="#424F57" points="157 139 156.958441 153.369954 135 166 135.040965 151.630634 157 139"></polyline>
                <polyline id="Fill-68" fill="#4CA496" points="178 142.645279 170.563421 146.93757 155.997891 138.585737 134.488917 151 127 146.705976 155.945553 130 178 142.645279"></polyline>
                <polyline id="Fill-69" fill="#5B6D77" points="135 151.429897 134.957365 166 127 161.570698 127.042635 147 135 151.429897"></polyline>
                <polyline id="Fill-70" fill="#929292" points="171 147 170.956468 161.569785 163 166 163.043532 151.42962 171 147"></polyline>
                <polyline id="Fill-71" fill="#B2B2B2" points="37 155.419242 36.9572391 170 29 165.580161 29.0427609 151 37 155.419242"></polyline>
                <polyline id="Fill-72" fill="#5B6D77" points="179 160.336416 178.95618 175 171 170.663584 171.044455 156 179 160.336416"></polyline>
                <polyline id="Fill-73" fill="#424F57" points="186 156 185.957086 170.570103 178 175 178.042914 160.429302 186 156"></polyline>
                <polyline id="Fill-74" fill="#4CA496" points="38 155.26864 21.916195 164 14 159.73136 30.083805 151 38 155.26864"></polyline>
                <polyline id="Fill-76" fill="#424F57" points="38 155 37.9579172 169.798417 22 179 22.0420828 164.201583 38 155"></polyline>
                <polyline id="Fill-77" fill="#929292" points="163 152 162.958824 166.308262 141 179 141.041176 164.692323 163 152"></polyline>
                <polyline id="Fill-78" fill="#424F57" points="171 156 170.958822 170.307987 149 183 149.041178 168.692013 171 156"></polyline>
                <polyline id="Fill-79" fill="#929292" points="179 161 178.957066 175.571612 171 180 171.042934 165.428388 179 161"></polyline>
                <polyline id="Fill-80" fill="#B2B2B2" points="30 168.428388 29.9573416 183 22 178.571612 22.0426584 164 30 168.428388"></polyline>
                <polyline id="Fill-81" fill="#5B6D77" points="149 168.429302 148.95675 183 141 178.570698 141.04325 164 149 168.429302"></polyline>
                <polyline id="Fill-82" fill="#4CA496" points="186 155.424582 178.377264 159.694308 170.913608 155.540601 148.672784 168 141 163.730274 170.863561 147 186 155.424582"></polyline>
                <polyline id="Fill-83" fill="#4CA496" points="187 165.498789 179.024326 170 171 165.501211 178.976298 161 187 165.498789"></polyline>
                <polyline id="Fill-84" fill="#5B6D77" points="179 170.42656 178.957322 185 171 180.57344 171.042678 166 179 170.42656"></polyline>
                <polyline id="Fill-85" fill="#424F57" points="186 166 185.957063 180.571612 178 185 178.042937 170.428388 186 166"></polyline>
                <polyline id="Fill-86" fill="#424F57" points="30 169 29.9598704 183.009583 16 191 16.0401296 176.990417 30 169"></polyline>
                <polyline id="Fill-88" fill="#929292" points="178 169 177.959549 183.678872 127 214 127.040451 199.321729 178 169"></polyline>
                <polyline id="Fill-89" fill="#B2B2B2" points="128 198.42807 127.957345 213 120 208.57193 120.042655 194 128 198.42807"></polyline>
                <polyline id="Fill-90" fill="#424F57" points="186 173 185.95955 187.67848 135 218 135.04045 203.32152 186 173"></polyline>
                <polyline id="Fill-91" fill="#4CA496" points="186 173.489828 134.612865 204 127 199.509568 178.387135 169 186 173.489828"></polyline>
                <polyline id="Fill-92" fill="#5B6D77" points="135 203.429759 134.957365 218 127 213.569646 127.042635 199 135 203.429759"></polyline>
                <polyline id="Fill-93" fill="#B2B2B2" points="97 207.42807 96.9567267 222 89 217.572526 89.0426551 203 97 207.42807"></polyline>
                <polyline id="Fill-94" fill="#929292" points="119 194 118.959698 208.259816 97 221 97.0408857 206.740184 119 194"></polyline>
                <polyline id="Fill-95" fill="#929292" points="90 203 89.9616864 218.023421 76 227 76.0383136 211.976579 90 203"></polyline>
                <polyline id="Fill-96" fill="#FFFFFF" points="171.458019 165.171583 179 169.544637 128.040479 199.284703 120.494395 194.909883 98.454106 207.772361 90.9080214 203.397541 76.1675964 212 16 177.114472 30.0709387 168.902926 22.5254403 164.527517 37.8650029 155.575355 30.337678 151.21172 45.6619983 142.242484 38.4676579 138.071363 31.0605122 133.681236 38.6101143 138.05429 53.9490906 129.101539 46.4024198 124.726718 53.9033639 120.349543 46.3572793 115.974722 60.5407761 107.69724 75.2208184 116.209035 68.1331736 120.344833 75.6821894 124.722008 50.8162227 139.234096 58.3658247 143.611272 155.369828 87 170.255054 95.6307183 103.587226 134.537832 111.13331 138.913241 141.321166 121.295625 156.37523 130.023483 156.825462 130.518601 127.645353 147.54808 135.194955 151.925255 156.87881 139.270597 171.56237 147.784159 142.177663 164.933149 149.727265 169.310324 171.611614 156.53851 178.95486 160.796174 171.458019 165.171583"></polyline>
                <polyline id="Fill-97" fill="#B2B2B2" points="76 211.685334 75.9596892 226 16 191.314666 16.0403108 177 76 211.685334"></polyline>
                <polyline id="Fill-98" fill="#4CA496" points="126 198.314594 104.3961 211 97 206.685406 118.603325 194 126 198.314594"></polyline>
                <polyline id="Fill-99" fill="#5B6D77" points="105 212.427931 104.956727 227 97 222.571473 97.0432733 208 105 212.427931"></polyline>
                <polyline id="Fill-100" fill="#424F57" points="127 199 126.959698 213.259508 105 226 105.040886 211.739909 127 199"></polyline>
                <polyline id="Fill-101" fill="#424F57" points="97 208 96.9611327 223.022807 83 232 83.038312 216.977193 97 208"></polyline>
                <polyline id="Fill-102" fill="#424F57" points="83 217 82.9566349 230.459755 76 234 76.0439935 220.539694 83 217"></polyline>
                <polyline id="Fill-103" fill="#5B6D77" points="76 220.511285 75.9594026 235 8 195.489308 8.04118573 181 76 220.511285"></polyline>
                <polyline id="Fill-104" fill="#4CA496" points="97 206.450169 75.8068358 218.611646 75.1308878 219 0 176.166679 21.2013575 164 28.7339347 168.295006 14.6865064 176.355655 74.7516547 210.60012 89.4668376 202.155741 97 206.450169"></polyline>
                <polyline id="Fill-105" fill="#424F57" points="77 221 76.9428105 234.626124 76 235 76.0563725 221.374433 77 221"></polyline>
            </g>
        </g>
    </g>
</svg>