<?xml version="1.0" encoding="UTF-8"?>
<svg width="480px" height="454px" viewBox="0 0 480 454" version="1.1" xmlns="http://www.w3.org/2000/svg" xmlns:xlink="http://www.w3.org/1999/xlink">
    <!-- Generator: Sketch 51.3 (57544) - http://www.bohemiancoding.com/sketch -->
    <title>Group 4</title>
    <desc>Created with Sketch.</desc>
    <defs></defs>
    <g id="Page-1" stroke="none" stroke-width="1" fill="none" fill-rule="evenodd">
        <g id="43913-copy-3" transform="translate(-137.000000, -1058.000000)">
            <g id="Group-4" transform="translate(137.000000, 1058.000000)">
                <g id="Group" transform="translate(0.000000, 101.000000)">
                    <polyline id="Fill-4" fill="#FFFFFE" points="0.507804878 139.954339 109.040488 186.933942 479.492195 137.239364 0.507804878 139.954339"></polyline>
                    <polyline id="Fill-5" fill="#A5B5B6" points="98.7453659 307.753264 98.7453659 352.566446 479.492195 137.239364 98.7453659 307.753264"></polyline>
                    <polyline id="Fill-6" fill="#ABBBBC" points="0.507804878 139.954339 90.317561 201.339694 90.317561 230.269686 109.040488 201.339694 479.492195 137.239364 109.040488 186.933942 0.507804878 139.954339"></polyline>
                    <path d="M366.610244,109.37576 C366.598537,109.203149 366.556098,109.029074 366.440488,108.856463 C365.821463,107.940744 364.826341,107.403893 363.777073,107.301496 C363.254634,107.065983 362.642927,106.931405 362.012195,106.886058 C360.41561,106.773421 358.754634,106.865579 357.159512,106.937256 C355.112195,107.02795 354.054146,107.12157 352.26439,105.992281 C351.53561,105.531496 350.76439,106.088826 350.638537,106.72076 C349.631707,107.400967 348.654146,108.122132 347.726341,108.909124 C347.423415,109.166579 347.120488,109.476694 346.918537,109.810215 C346.043415,109.699041 345.30439,110.955595 346.179512,111.635802 C346.399024,111.808413 346.62,111.954694 346.842439,112.086347 C346.968293,112.652455 347.338537,113.111777 348.092195,113.215636 C348.165366,113.224413 348.237073,113.198083 348.310244,113.198083 C349.295122,113.566711 350.492195,113.320959 351.800488,113.101537 C356.481951,112.320397 361.154634,111.501223 365.830244,110.701066 C366.532683,110.581116 366.794634,109.922851 366.610244,109.37576" id="Fill-7" fill="#F6C8AD"></path>
                    <path d="M345.642439,112.479843 C346.060976,112.773868 346.485366,112.69195 346.789756,112.444736 C346.805854,112.435959 346.820488,112.438884 346.838049,112.428645 C349.903902,110.734711 352.820488,108.922289 354.441951,105.702645 C354.556098,105.475909 354.556098,105.276967 354.509268,105.098504 C354.532683,104.864455 354.48,104.615777 354.29561,104.380264 C352.871707,102.588322 351.345366,100.894388 349.751707,99.2575041 C349.742927,99.2443388 349.742927,99.2297107 349.732683,99.2165455 C342.686341,89.616124 332.986829,82.3532727 325.807317,72.7587025 C325.022927,71.7098678 323.486341,73.046876 324.267805,74.0927851 L327.288293,95.2654959 L345.642439,112.479843" id="Fill-8" fill="#115D5E"></path>
                    <path d="M285.760976,176.726455 C284.719024,175.544504 283.949268,171.651967 283.79122,171.593455 C283.754634,171.14876 283.996098,169.192983 283.996098,169.192983 C281.435122,169.829306 278.88,170.491959 276.333659,171.182405 C276.250244,171.20581 276.190244,171.249694 276.140488,171.302355 C275.916585,171.226289 275.641463,171.29943 275.609268,171.600769 C275.405854,173.479017 274.845366,177.304264 276.741951,178.600314 C276.819512,178.680769 276.929268,178.731967 277.07561,178.705636 C280.270244,178.158545 286.050732,176.662091 285.760976,176.726455" id="Fill-9" fill="#F6C8AD"></path>
                    <path d="M375.550244,163.618215 C375.594146,160.283008 375.553171,156.949264 375.422927,153.616983 C375.422927,153.616983 367.180976,154.289876 367.214634,154.829653 C367.377073,157.54024 367.570244,160.249364 367.79122,162.957025 C367.797073,163.033091 367.845366,163.075512 367.880488,163.131099 C367.737073,163.341744 367.763415,163.673802 368.078049,163.768884 C369.948293,164.327678 373.738537,165.623727 375.396585,163.922479 C375.408293,163.913702 375.414146,163.903463 375.425854,163.894686 C375.485854,163.824471 375.515122,163.749868 375.523902,163.675264 C375.528293,163.65186 375.550244,163.644545 375.550244,163.618215" id="Fill-10" fill="#F6C8AD"></path>
                    <path d="M363.36,140.321504 C363.36,140.322967 363.36,140.32443 363.36,140.325893 C363.358537,140.315653 363.358537,140.30395 363.358537,140.293711 C363.358537,140.30395 363.36,140.312727 363.36,140.321504 Z M380.994146,120.929033 C380.973659,120.221033 380.942927,119.508645 380.88,118.80357 C380.881463,115.895504 380.328293,113.067893 378.035122,111.352017 C374.310732,108.566826 367.470732,110.288554 363.453659,110.762504 C353.203902,111.972248 343.053659,113.765653 332.976585,115.984736 C332.452683,116.098835 332.480488,118.866471 332.802439,120.551628 C332.899024,121.065074 333.828293,129.602033 333.845854,129.698579 C334.314146,132.315545 334.128293,136.093983 334.643415,136.294388 C332.945854,136.684959 351.633659,133.245893 362.616585,130.71962 C361.817561,139.568157 366.275122,156.690347 366.389268,156.712289 C366.433171,156.839554 368.436585,157.666041 369.339512,157.895702 C370.355122,158.156083 371.420488,158.153157 372.459512,158.066851 C373.879024,157.949826 375.330732,157.727479 376.02878,156.358289 C376.030244,156.353901 376.030244,156.350975 376.031707,156.34805 C376.132683,156.293926 376.214634,156.201769 376.245366,156.059876 C377.849268,148.25286 379.081463,140.391719 379.85122,132.46914 C379.977073,131.736273 380.121951,131.000479 380.310732,130.264686 C380.379512,129.998455 380.379512,129.735149 380.351707,129.476231 C381.149268,126.733463 381.071707,123.761033 380.994146,120.929033 Z" id="Fill-11" fill="#13121A"></path>
                    <path d="M339.29561,163.820083 C337.849756,148.217752 335.882927,132.690025 333.520976,117.204719 C333.487317,116.425041 333.084878,114.265934 333.076098,114.200107 C333.013171,113.791983 309.989268,117.501669 310.044878,117.791306 C310.096098,118.051686 310.150244,118.30914 310.202927,118.569521 C310.198537,118.869397 310.581951,120.596975 310.720976,121.14114 C312.766829,131.40714 315.002927,141.627793 317.436585,151.806025 C317.443902,151.844058 317.448293,151.883554 317.454146,151.921587 C317.477561,152.056165 317.522927,152.179041 317.558049,152.306306 C317.831707,153.447298 318.108293,154.586826 318.386341,155.726355 C308.903415,157.843041 299.563902,160.038719 290.814146,163.934182 C290.397073,164.051207 290.03122,164.21943 289.718049,164.434463 C286.874634,165.75538 284.094146,167.256223 281.397073,169.013058 C281.243415,169.112529 281.209756,169.257347 281.246341,169.389 C281.217073,169.437273 281.173171,169.469455 281.170244,169.541132 C281.034146,173.176215 282.762439,178.657364 287.146829,177.915719 C287.918049,177.873298 288.692195,177.825025 289.466341,177.779678 C290.253659,177.851355 291.049756,177.804545 291.870732,177.640711 C303.213659,176.92686 314.705854,175.785868 325.68,172.93924 C326.653171,172.687636 327.878049,172.389223 329.184878,172.017669 C330.297073,171.893331 331.309756,171.572975 332.309268,170.995165 C335.963415,169.606959 339.352683,167.455165 339.29561,163.820083" id="Fill-12" fill="#1A1926"></path>
                    <path d="M285.210732,188.167091 C285.067317,186.326876 283.340488,185.024975 281.555122,185.003033 C280.470732,184.989868 279.146341,185.680314 278.089756,185.351182 C276.014634,184.70462 277.120976,178.695397 276.995122,178.525711 C275.52,176.518736 275.93561,173.372231 276.263415,171.041975 C276.267805,171.01857 276.270732,170.99224 276.273659,170.967372 C276.275122,170.958595 276.266341,170.954207 276.267805,170.94543 C276.267805,170.919099 276.275122,170.895694 276.270732,170.867901 C276.077561,169.678636 274.542439,169.564537 273.556098,169.413868 C271.845366,169.153488 270.130244,169.264661 268.450244,169.662545 C268.267317,169.443124 267.883902,169.400702 267.778537,169.744463 C265.876098,175.992124 264.654146,185.560364 268.811707,191.224364 C268.909756,191.356017 269.038537,191.389661 269.16,191.370645 C269.212683,191.473041 269.297561,191.553496 269.445366,191.57105 C274.830732,192.213223 280.046341,191.262397 284.847805,188.744901 C284.957561,188.687851 285.020488,188.601545 285.049756,188.507926 C285.149268,188.430397 285.222439,188.325074 285.210732,188.167091" id="Fill-13" fill="#0A090B"></path>
                    <path d="M389.572683,168.29043 C387.288293,168.087099 385.090244,168.458653 382.811707,168.476207 C380.670732,168.492298 379.132683,168.100264 377.707317,166.388777 C377.009268,165.550587 376.565854,164.55295 375.976098,163.64162 C375.829756,163.416347 375.594146,163.433901 375.430244,163.562628 C375.421463,163.562628 375.414146,163.559702 375.402439,163.561165 C372.95561,163.859579 370.55561,163.707446 368.16439,163.119397 C367.895122,163.05357 367.74,163.242273 367.720976,163.458769 C367.593659,163.505579 367.483902,163.602124 367.450244,163.768884 C366.626341,167.627777 366.572195,171.458876 367.274634,175.338248 C367.340488,175.702488 367.74878,175.755149 367.968293,175.584 C368.006341,175.597165 368.020976,175.63081 368.069268,175.633736 C377.061951,176.148645 385.832195,175.111512 394.466341,172.525264 C394.581951,172.490157 395.212683,172.226851 395.196585,171.906496 C395.04439,168.944306 392.016585,168.508388 389.572683,168.29043" id="Fill-14" fill="#0A090B"></path>
                    <path d="M329.246341,7.88893388 C328.065366,4.01395041 323.76,-0.402272727 319.450244,0.583661157 C316.230732,1.32238017 314.268293,4.96038843 311.255122,6.07943802 C307.467805,7.48958678 302.988293,5.2807438 299.038537,6.52413223 C294.83561,7.84797521 292.097561,11.212438 290.973659,15.2351653 C290.877073,15.1503223 290.799512,15.0508512 290.689756,14.9762479 C289.682927,14.3048182 288.42878,14.2887273 287.454146,15.0098926 C286.399024,15.7881074 287.666341,17.3811074 288.721463,16.6028926 C289.185366,16.2591322 289.577561,16.5516942 289.871707,17.0022397 C282.867805,21.7315041 281.231707,30.1177934 284.143902,38.1954298 C287.692683,48.0313636 296.462927,50.3484545 305.982439,49.6111983 C306.447805,49.5746281 306.702439,49.290843 306.78878,48.9500083 C306.838537,48.9090496 306.894146,48.8841818 306.939512,48.828595 C310.527805,44.5747438 311.919512,39.0950579 314.975122,34.4886694 C316.355122,32.4114793 317.937073,30.4761818 319.217561,28.3331653 C321.026341,25.3095372 321.553171,21.8733967 324.661463,19.6879587 C324.863415,19.5446033 324.961463,19.3690661 325.014146,19.1862149 C328.022927,16.1260165 330.607317,12.3490413 329.246341,7.88893388" id="Fill-15" fill="#1A1926"></path>
                    <path d="M382.274634,23.0568099 C382.279024,23.0597355 382.283415,23.0626612 382.287805,23.0655868 C382.283415,23.0699752 382.276098,23.0729008 382.26878,23.0772893 C382.271707,23.0699752 382.271707,23.064124 382.274634,23.0568099 Z M379.333171,25.4148595 C379.32439,25.4075455 379.32,25.3929174 379.31122,25.3856033 C379.31561,25.3812149 379.32,25.3753636 379.32439,25.3709752 C379.327317,25.3856033 379.330244,25.4002314 379.333171,25.4148595 Z M389.234634,18.2865868 C389.407317,17.1777769 388.32439,16.5239008 386.70439,17.0358843 C383.856585,17.9355124 380.992683,20.8040826 378.54439,22.486314 C375.203415,24.7814628 371.859512,27.0766116 368.518537,29.3732231 C368.487805,29.3937025 368.473171,29.4200331 368.448293,29.4449008 C368.193659,29.4814711 367.955122,29.6833388 367.993171,30.0153967 C368.09561,30.9252645 369.206341,38.0901074 370.229268,38.0169669 C370.406341,38.0038017 370.570244,37.8589835 370.634634,37.6995372 C370.639024,37.6878347 370.643415,37.6761322 370.647805,37.6658926 C371.972195,36.8145372 373.426829,36.3420496 374.959024,36.1431074 C375.327805,36.2191736 377.171707,36.9286364 377.913659,36.9725207 C379.419512,37.0617521 382.31122,34.430157 382.631707,33.9679091 C383.75122,33.1267934 384.256098,32.2505702 384.038049,30.3035702 C383.980976,29.7886612 383.262439,27.6836777 383.149756,26.7533306 C383.038537,25.8317603 382.445854,25.1822727 382.188293,24.3353058 C384.297073,23.0436446 388.327317,19.8459421 388.429756,19.739157 C388.598049,19.5592314 389.332683,18.4840661 389.234634,18.2865868 Z" id="Fill-16" fill="#F6C8AD"></path>
                    <path d="M311.253659,33.2935537 C311.241951,33.2803884 311.234634,33.2642975 311.22,33.2540579 C311.250732,33.1765289 311.263902,33.1809174 311.253659,33.2935537 Z M327.592683,37.0281074 C325.974146,30.7819091 324.286829,24.5532645 322.633171,18.3173058 C322.633171,18.3129174 322.637561,18.3099917 322.636098,18.3041405 C322.62,18.1754132 322.579024,18.0452231 322.526341,17.9208843 C322.513171,17.8579835 322.469268,17.8053223 322.472195,17.7365702 C322.447317,17.5493306 322.325854,17.4703388 322.188293,17.4366942 C321.933659,17.2245868 321.602927,17.1865537 321.267805,17.5522562 C321.206341,17.6210083 321.159512,17.7146281 321.108293,17.8038595 C319.286341,19.7508595 317.263902,21.3277686 314.847805,22.4965537 C313.738537,23.0348678 312.196098,23.2440496 311.435122,24.3206777 C311.124878,24.7609835 311.27561,25.3241653 311.167317,25.8434628 C310.344878,29.7857355 312.658537,32.9966033 307.91561,35.7715537 C307.772195,35.8549339 307.630244,36.0173058 307.67561,36.2016198 C307.943415,37.3001901 308.21122,38.3987603 308.479024,39.4958678 C308.429268,39.5002562 308.383902,39.4812397 308.33122,39.5104959 C308.192195,39.586562 308.050244,39.6362975 307.909756,39.6933471 C307.858537,39.6904215 307.816098,39.6626281 307.760488,39.6801818 C307.557073,39.740157 307.399024,39.7430826 307.257073,39.7240661 C307.085854,39.3422727 306.897073,38.970719 306.690732,38.6064793 C306.687805,38.5918512 306.698049,38.5816116 306.693659,38.5684463 C306.598537,38.2451653 306.47561,37.9482149 306.330732,37.6629669 C306.316098,37.6293223 306.30439,37.5956777 306.289756,37.5620331 C306.302927,37.4903554 306.3,37.4142893 306.254634,37.3294463 C304.419512,33.7572645 298.07122,31.1666281 295.650732,35.7028017 C292.816098,41.0245041 300.294146,45.8532397 304.110732,47.7548926 C304.176585,47.7885372 304.238049,47.7987769 304.296585,47.7958512 C304.302439,47.7987769 304.308293,47.8002397 304.312683,47.8031653 C304.312683,47.8060909 304.31122,47.8075537 304.309756,47.8090165 C304.321463,47.813405 304.330244,47.813405 304.340488,47.8163306 C304.502927,47.905562 304.668293,47.9640744 304.843902,47.997719 C305.442439,49.8408595 305.964878,51.7030165 306.370244,53.6017438 C306.362927,53.6427025 306.330732,53.6690331 306.336585,53.7187686 C306.491707,55.0016529 306.755122,56.2450413 307.104878,57.4855041 C307.101951,57.5147603 307.078537,57.532314 307.082927,57.5659587 C307.138537,57.994562 307.192683,58.4231653 307.246829,58.8517686 C307.25122,58.8883388 307.280488,58.8985785 307.289268,58.9292975 C307.303902,59.0243802 307.32,59.1194628 307.334634,59.2130826 C307.334634,59.2174711 307.339024,59.2189339 307.340488,59.2233223 C307.226341,59.4208017 307.25122,59.6811818 307.529268,59.7557851 C309.983415,60.4081983 312.443415,60.5793471 314.960488,60.2429008 C315.228293,60.2077934 315.321951,59.9766694 315.282439,59.7704132 C315.332195,59.7616364 315.380488,59.7543223 315.42878,59.7440826 C315.437561,59.7674876 315.443415,59.7908926 315.452195,59.8142975 C315.602927,60.241438 316.331707,60.0410331 316.227805,59.5919504 C316.074146,58.9322231 315.885366,58.2812727 315.72439,57.6230083 C315.538537,56.3752314 315.35122,55.1289174 315.165366,53.8796777 C320.46,52.8206033 325.987317,50.2577603 328.137073,46.5246694 C329.818537,43.6049008 328.353659,39.9595785 327.592683,37.0281074 Z" id="Fill-17" fill="#F6C8AD"></path>
                    <path d="M372.346829,39.0950579 C371.70439,36.0026777 370.56439,33.1516612 368.953171,30.4527769 C368.973659,29.7447769 368.379512,29.0440909 367.618537,29.4917107 C350.319512,39.6933471 332.986829,49.8408595 315.629268,59.9430248 C312.901463,58.7508347 309.648293,58.2037438 305.64,58.1159752 C305.28878,58.1086612 305.020976,58.256405 304.832195,58.4685124 C304.68878,58.4597355 304.538049,58.4787521 304.377073,58.5431157 C297.12,61.4146116 299.256585,71.4992231 299.735122,77.7732149 C300.702439,90.4630909 305.937073,102.292835 306.573659,115.009041 C306.573659,115.011967 306.575122,115.01343 306.575122,115.017818 C306.067317,115.474215 305.985366,116.407488 306.812195,116.705901 C315.730244,119.935785 328.336098,119.042008 335.859512,112.985975 C336.406829,112.545669 336.286829,111.890331 335.907805,111.496835 C335.928293,111.391512 335.945854,111.28619 335.929756,111.161851 C334.447317,100.247826 331.981463,89.5064132 328.343415,79.1307025 C328.501463,78.8790992 325.428293,71.4670413 325.166341,70.8453471 C324.96,70.3567686 324.746341,69.8945207 324.53122,69.4395868 C340.340488,60.0351818 355.943415,50.298719 371.318049,40.1965537 C371.904878,40.2228843 372.500488,39.8308512 372.346829,39.0950579" id="Fill-18" fill="#007478"></path>
                    <path d="M312.999512,76.11 C316.838049,74.0927851 320.678049,72.0741074 324.516585,70.0568926 C324.980488,69.8140661 324.569268,69.1104545 324.106829,69.3547438 C320.266829,71.3719587 316.426829,73.3891736 312.588293,75.4078512 C312.122927,75.6506777 312.534146,76.3542893 312.999512,76.11" id="Fill-19" fill="#115D5E"></path>
                    <path d="M236.378049,84.6513471 C224.405854,71.3266116 200.401463,77.6371736 194.004878,93.4472231 C190.340488,102.504942 190.365366,112.899669 190.406341,122.511793 C190.463415,136.137868 192.320488,149.37776 198.807805,161.513231 C199.005366,161.88186 199.517561,161.757521 199.605366,161.457645 C199.91122,161.510306 200.217073,161.548339 200.521463,161.589298 C200.792195,161.656587 201.080488,161.697545 201.386341,161.713636 C206.402927,162.23586 211.903902,162.433339 215.937073,159.261967 C222.987805,153.716455 222.18439,137.145744 222.399512,136.891215 C223.058049,136.439207 223.536585,119.097595 233.657561,101.19719 C239.572683,95.5843884 240.731707,90.6942149 236.378049,84.6513471" id="Fill-20" fill="#482641"></path>
                    <path d="M243.011707,112.966959 C241.419512,106.56424 237.970244,93.2570579 237.974634,93.1883058 C237.736098,92.2257769 236.629756,93.1517355 236.577073,93.2424298 C234.693659,95.2142975 232.609756,96.8058347 230.127805,97.9760826 C228.986341,98.5143967 226.646341,99.3569752 226.32878,101.361025 C225.684878,105.429099 227.780488,108.691165 222.901463,111.479281 C222.753659,111.564124 222.607317,111.727959 222.65122,111.918124 C222.911707,113.032785 223.172195,114.148909 223.432683,115.26357 C223.385854,115.269421 222.332195,115.535653 222.187317,115.513711 C222.014634,115.12314 221.231707,113.142496 221.187805,113.054727 C219.346829,109.384537 212.881463,106.669562 210.361463,111.284727 C207.406829,116.697124 215.004878,121.710174 218.885854,123.696669 C218.954634,123.730314 219.456585,123.913165 219.633659,123.949736 C220.227805,125.841149 222.05122,135.34795 222.065854,135.445959 C222.065854,135.450347 222.260488,136.001826 222.260488,136.001826 C224.762927,136.695198 231.257561,136.385083 231.156585,135.924298 C231.005854,135.248479 230.306341,131.350091 230.129268,130.071595 C235.554146,129.041777 241.232195,126.478934 243.469756,122.684405 C245.218537,119.714901 243.758049,115.97157 243.011707,112.966959" id="Fill-21" fill="#F6C8AD"></path>
                    <path d="M247.003902,192.343413 C247.040488,192.239554 245.39561,167.766744 242.553659,151.639264 C239.541951,140.246901 234.425854,135.608331 224.161463,133.896843 C223.805854,133.838331 222.490244,134.17624 222.317561,134.217198 C214.552683,136.06619 215.745366,146.512116 215.313659,152.932388 C214.441463,165.917752 218.010732,178.654438 216.799024,191.619322 C216.799024,191.622248 216.800488,191.625174 216.800488,191.628099 C216.219512,192.017207 216,192.949017 216.793171,193.371769 C225.349756,197.940124 238.239512,198.876322 246.737561,193.844256 C247.356585,193.477091 247.330244,192.796884 247.003902,192.343413" id="Fill-22" fill="#E15967"></path>
                    <path d="M163.741463,102.330868 C163.103415,101.86862 162.403902,101.580446 161.680976,101.401983 C161.634146,101.330306 161.604878,101.25424 161.553659,101.184025 C160.113659,99.2472645 157.554146,98.3256942 155.203902,98.8918017 C154.586341,99.0395455 154.002439,99.2794463 153.465366,99.5866364 C152.604878,97.227124 150.573659,95.2698843 147.725854,94.864686 C147.59561,94.8456694 147.465366,94.8573719 147.333659,94.8544463 C146.135122,94.395124 144.838537,94.3263719 143.615122,94.6481901 C141.810732,94.0060165 140.16439,94.6964628 139.053659,96.0217686 C138.859024,95.9149835 138.673171,95.8038099 138.463902,95.7131157 C133.769268,93.6681074 128.52878,97.5621074 127.921463,102.266504 C127.68439,102.254802 127.44878,102.231397 127.20878,102.241636 C122.446829,102.440579 120,106.625678 119.957561,110.891231 C119.724878,110.93219 119.487805,110.959983 119.258049,111.006793 C116.123415,111.634339 114.53122,114.911033 115.921463,117.782529 C116.209756,118.377893 116.594634,118.908893 117.040976,119.376992 C116.997073,119.533512 116.93561,119.681256 116.901951,119.840702 C116.483415,120.389256 116.10439,120.97438 115.824878,121.628256 C114.367317,125.040992 115.235122,128.594157 117.105366,131.570975 C116.562439,133.071818 116.537561,134.77014 117.270732,136.604504 C118.846829,140.54824 123.619024,143.981455 127.833659,144.21843 C128.217073,144.240372 128.590244,144.206727 128.964878,144.180397 C128.641463,146.92024 129.816585,149.785884 132.78439,151.138983 C133.306829,151.377421 133.848293,151.517851 134.39122,151.608545 C136.565854,152.568149 139.112195,152.214149 141.463902,151.544182 C146.615122,150.075521 146.492195,143.342207 146.543415,143.241273 C147.563415,141.23576 149.536098,136.622058 151.50878,134.670669 C155.121951,131.196496 165.819512,115.658529 166.950732,113.612058 C168.616098,110.603058 166.68,104.465107 163.741463,102.330868" id="Fill-23" fill="#1E1818"></path>
                    <path d="M166.600976,132.726595 C165.00878,126.323876 161.559512,113.018157 161.563902,112.947942 C161.326829,111.986876 160.219024,112.912835 160.166341,113.002066 C158.282927,114.975397 156.199024,116.566934 153.718537,117.737182 C152.577073,118.275496 150.237073,119.118074 149.918049,121.120661 C149.274146,125.188736 151.37122,128.452264 146.492195,131.24038 C146.342927,131.32376 146.198049,131.489058 146.241951,131.679223 C146.502439,132.793884 146.762927,133.908545 147.021951,135.024669 C146.976585,135.030521 145.921463,135.296752 145.776585,135.27481 C145.605366,134.882777 144.822439,132.902132 144.778537,132.815826 C142.936098,129.145636 136.470732,126.430661 133.952195,131.044364 C130.996098,136.458223 138.59561,141.471273 142.476585,143.456306 C142.545366,143.491413 143.047317,143.674264 143.22439,143.710835 C143.817073,145.602248 145.641951,155.10905 145.655122,155.207058 C145.656585,155.209983 145.85122,155.761463 145.85122,155.761463 C148.352195,156.456298 154.846829,156.146182 154.745854,155.685397 C154.596585,155.008116 153.897073,151.11119 153.72,149.832694 C159.144878,148.802876 164.821463,146.240033 167.059024,142.444041 C168.809268,139.476 167.34878,135.732669 166.600976,132.726595" id="Fill-24" fill="#E89D7C"></path>
                    <path d="M170.594634,212.104512 C170.629756,212.000653 168.986341,187.52638 166.142927,171.398901 C163.132683,160.008 158.016585,155.367967 147.750732,153.657942 C147.396585,153.59943 146.079512,153.937339 145.908293,153.978298 C138.143415,155.827289 139.336098,166.273215 138.902927,172.693488 C138.030732,185.678851 141.601463,198.415537 140.389756,211.380421 C140.389756,211.383347 140.39122,211.386273 140.39122,211.389198 C139.810244,211.776843 139.590732,212.710116 140.383902,213.132868 C148.939024,217.701223 161.82878,218.637421 170.326829,213.603893 C170.945854,213.236727 170.920976,212.557983 170.594634,212.104512" id="Fill-25" fill="#4C3A5C"></path>
                    <polyline id="Fill-26" fill="#FFFFFE" points="479.492195 137.239364 16.2643902 344.69214 109.040488 201.339694 479.492195 137.239364"></polyline>
                </g>
                <rect id="Rectangle" fill="#494949" fill-rule="nonzero" x="228" y="0" width="13" height="83" rx="6.5"></rect>
            </g>
        </g>
    </g>
</svg>