<?xml version="1.0" encoding="UTF-8"?>
<svg width="684px" height="492px" viewBox="0 0 684 492" version="1.1" xmlns="http://www.w3.org/2000/svg" xmlns:xlink="http://www.w3.org/1999/xlink">
    <!-- Generator: Sketch 51.3 (57544) - http://www.bohemiancoding.com/sketch -->
    <title>Group 3</title>
    <desc>Created with Sketch.</desc>
    <defs>
        <rect id="path-1" x="0" y="0" width="666.5" height="389" rx="5"></rect>
        <filter x="-1.8%" y="-3.1%" width="104.5%" height="107.7%" filterUnits="objectBoundingBox" id="filter-2">
            <feOffset dx="3" dy="3" in="SourceAlpha" result="shadowOffsetOuter1"></feOffset>
            <feGaussianBlur stdDeviation="4.5" in="shadowOffsetOuter1" result="shadowBlurOuter1"></feGaussianBlur>
            <feColorMatrix values="0 0 0 0 0   0 0 0 0 0   0 0 0 0 0  0 0 0 0.177281476 0" type="matrix" in="shadowBlurOuter1"></feColorMatrix>
        </filter>
        <filter x="0.0%" y="0.0%" width="100.0%" height="100.0%" filterUnits="objectBoundingBox" id="filter-3">
            <feGaussianBlur stdDeviation="0 0" in="SourceGraphic"></feGaussianBlur>
        </filter>
        <filter x="0.0%" y="0.0%" width="100.0%" height="100.0%" filterUnits="objectBoundingBox" id="filter-4">
            <feGaussianBlur stdDeviation="0 0" in="SourceGraphic"></feGaussianBlur>
        </filter>
        <filter x="0.0%" y="0.0%" width="100.0%" height="100.0%" filterUnits="objectBoundingBox" id="filter-5">
            <feGaussianBlur stdDeviation="0 0" in="SourceGraphic"></feGaussianBlur>
        </filter>
        <filter x="0.0%" y="0.0%" width="100.0%" height="100.0%" filterUnits="objectBoundingBox" id="filter-6">
            <feGaussianBlur stdDeviation="0 0" in="SourceGraphic"></feGaussianBlur>
        </filter>
        <filter x="0.0%" y="0.0%" width="100.0%" height="100.0%" filterUnits="objectBoundingBox" id="filter-7">
            <feGaussianBlur stdDeviation="0 0" in="SourceGraphic"></feGaussianBlur>
        </filter>
        <filter x="0.0%" y="0.0%" width="100.0%" height="100.0%" filterUnits="objectBoundingBox" id="filter-8">
            <feGaussianBlur stdDeviation="0 0" in="SourceGraphic"></feGaussianBlur>
        </filter>
        <filter x="0.0%" y="0.0%" width="100.0%" height="100.0%" filterUnits="objectBoundingBox" id="filter-9">
            <feGaussianBlur stdDeviation="0 0" in="SourceGraphic"></feGaussianBlur>
        </filter>
        <filter x="0.0%" y="0.0%" width="100.0%" height="100.0%" filterUnits="objectBoundingBox" id="filter-10">
            <feGaussianBlur stdDeviation="0 0" in="SourceGraphic"></feGaussianBlur>
        </filter>
        <filter x="0.0%" y="0.0%" width="100.0%" height="100.0%" filterUnits="objectBoundingBox" id="filter-11">
            <feGaussianBlur stdDeviation="0 0" in="SourceGraphic"></feGaussianBlur>
        </filter>
        <filter x="0.0%" y="0.0%" width="100.0%" height="100.0%" filterUnits="objectBoundingBox" id="filter-12">
            <feGaussianBlur stdDeviation="0 0" in="SourceGraphic"></feGaussianBlur>
        </filter>
    </defs>
    <g id="Page-1" stroke="none" stroke-width="1" fill="none" fill-rule="evenodd">
        <g id="43913-copy-4" transform="translate(-36.000000, -1668.000000)">
            <g id="Group-3" transform="translate(42.000000, 1668.000000)">
                <g id="Group-2" transform="translate(0.000000, 91.000000)">
                    <text id="SPIRIT" font-family="Cocogoose" font-size="24" font-weight="normal" fill="#FFFFFF">
                        <tspan x="31.6" y="80">SPIRIT</tspan>
                    </text>
                    <path d="M26.0237066,68.7130253 C25.5618355,69.886408 24.6465873,70.9041306 23.7254994,71.83632 C22.6886782,72.8857413 21.6509723,73.9332147 20.6437038,75.0040637 C19.0878527,76.6582393 17.4111365,78.1919954 15.7016822,79.7160116 C12.5535258,75.651319 8.83148126,71.4146743 8.75273311,66.3800727 C8.72158777,64.382347 9.43191378,61.7430328 12.0543157,61.2339059 C15.0964717,60.6431415 15.7158392,64.0090463 15.8878464,65.8952067 C15.9703108,66.7979995 17.4231699,67.613311 18.2364879,66.7337167 C19.1950917,65.6970457 20.2103235,64.6970317 21.3051882,63.7653737 C22.0348031,63.1445044 23.1388699,62.1795539 24.2831071,62.557636 C25.3931905,62.9247386 25.9785813,64.0828918 26.241547,64.9970182 C26.5956482,66.2281315 26.4947798,67.516267 26.0237066,68.7130253 Z M28.8149304,64.1083924 C28.1468983,62.101104 26.2551731,60.0095219 23.5950783,60.1125869 C22.0489601,60.1724425 20.7604988,60.9415342 19.6702351,61.8285662 C19.1483737,62.2532223 18.6477479,62.6984206 18.1626947,63.1563693 C17.7093177,61.5785184 16.8655622,60.0785861 15.2322017,59.3222448 C13.0230064,58.2992095 10.1733851,58.8534938 8.4340243,60.3385507 C6.44727041,62.0348733 5.86577283,64.6139776 6.02486179,66.9394925 C6.20677887,69.5961613 7.24713926,72.131348 8.65858925,74.479353 C10.2852252,77.1857834 12.4105404,79.6373847 14.3047431,82.2035617 C14.497101,82.4642347 14.7490951,82.6216656 15.0200241,82.6983445 C15.4703927,82.8733071 16.0147283,82.8432022 16.4654508,82.4435154 C18.4127421,80.717088 20.3952489,79.0289116 22.1500055,77.1508971 C24.0056304,75.1648592 26.2567658,73.2999493 27.7531576,71.090781 C29.1692086,69.0002614 29.592679,66.445418 28.8149304,64.1083924 Z" id="Fill-245" fill="#FFFFFF"></path>
                    <g id="big-rec">
                        <use fill="black" fill-opacity="1" filter="url(#filter-2)" xlink:href="#path-1"></use>
                        <use fill="#FAFAFA" fill-rule="evenodd" xlink:href="#path-1"></use>
                    </g>
                    <text id="LOGIN" font-family="Averta-Bold" font-size="8.5" font-weight="bold" letter-spacing="0.326923043" fill="#FFFFFF">
                        <tspan x="306" y="322">LOGIN</tspan>
                    </text>
                    <path d="M225.75,119.25 L225.75,296.75" id="Line" stroke="#438F81" stroke-width="2.5" stroke-linecap="square" fill-rule="nonzero"></path>
                    <path d="M443.125,119.25 L443.125,296.75" id="Line-Copy" stroke="#438F81" stroke-width="2.5" stroke-linecap="square" fill-rule="nonzero"></path>
                    <path d="M132,150.02731 C132,150.02731 141.166667,152.911883 144.55678,142 L146.189266,143.254223 C146.189266,143.254223 145.561299,155.295048 132.879096,154.542514 C132.753672,154.535177 132.879096,155.044203 132.879096,155.044203 C132.879096,155.044203 132,153.037446 132,150.02731" id="Fill-5" fill="#007C91"></path>
                    <path d="M133.864407,166 C133.864407,166 139.891525,189.245594 141.063559,193.760798 C141.063559,193.760798 143.742373,194.262487 143.909887,194.764176 C144.077119,195.265865 139.222034,195.433189 138.719774,195.098542 C138.217514,194.764176 129.344068,175.030689 127,166.836337 L133.864407,166" id="Fill-6" fill="#2E1C15"></path>
                    <path d="M122.049715,166 C122.049715,166 116.022314,189.245594 114.85028,193.760798 C114.85028,193.760798 112.171749,194.262487 112.004234,194.764176 C111.83672,195.265865 116.692088,195.433189 117.194347,195.098542 C117.696607,194.764176 126.570054,175.030689 128.913839,166.836337 L122.049715,166" id="Fill-7" fill="#2E1C15"></path>
                    <path d="M123.239283,149.592023 C123.239283,149.592023 120.560469,162.80355 121.062729,166.984388 C121.062729,166.984388 130.271204,168.823821 135.126289,166.64974 C135.126289,166.64974 134.289283,154.776239 132.112729,149.926388 C132.112729,149.926388 130.60595,148.086955 123.239283,149.592023" id="Fill-8" fill="#00A1A0"></path>
                    <path d="M126.25113,147.376126 L126,149.633728 C126,149.633728 130.018362,151.541727 130.018362,149.759291 C130.018362,149.382883 129.390395,147 129.390395,147 L126.25113,147.376126" id="Fill-9" fill="#EC912D"></path>
                    <path d="M84.7714689,257.782718 C84.7714689,258.767192 77.4353107,259.565154 68.3858757,259.565154 C59.3361582,259.565154 52,258.767192 52,257.782718 C52,256.798245 59.3361582,256 68.3858757,256 C77.4353107,256 84.7714689,256.798245 84.7714689,257.782718" id="Fill-13" fill="#F6C697"></path>
                    <path d="M201.771469,257.782718 C201.771469,258.767192 194.435311,259.565154 185.385593,259.565154 C176.336158,259.565154 169,258.767192 169,257.782718 C169,256.798245 176.336158,256 185.385593,256 C194.435311,256 201.771469,256.798245 201.771469,257.782718" id="Fill-14" fill="#F6C697"></path>
                    <path d="M168.870339,257.069398 C168.870339,258.212448 150.319209,259.138795 127.435028,259.138795 C104.55113,259.138795 86,258.212448 86,257.069398 C86,255.92663 104.55113,255 127.435028,255 C150.319209,255 168.870339,255.92663 168.870339,257.069398" id="Fill-15" fill="#F6C697"></path>
                    <path d="M154.85452,239.33432 C154.85452,237.32982 153.638701,235.562339 151.786723,234.504503 L167.549435,234.504503 L167.549435,218.340684 C166.527684,220.423061 164.650282,221.824292 162.49661,221.824292 C159.253955,221.824292 156.625424,218.658119 156.625424,214.752392 C156.625424,210.846665 159.253955,207.680492 162.49661,207.680492 C164.650282,207.680492 166.527684,209.081724 167.549435,211.164101 L167.549435,195 L151.779096,195 C153.635593,196.057272 154.85452,197.827293 154.85452,199.834614 C154.85452,203.073303 151.684746,205.698848 147.774576,205.698848 C143.864689,205.698848 140.694915,203.073303 140.694915,199.834614 C140.694915,197.827293 141.913842,196.057272 143.770339,195 L128,195 L128,234.504503 L143.762429,234.504503 C141.910452,235.562339 140.694915,237.32982 140.694915,239.334038 C140.694915,242.573009 143.864689,245.198554 147.774576,245.198554 C151.684746,245.198554 154.85452,242.573009 154.85452,239.33432" id="Fill-16" fill="#ED9C30"></path>
                    <path d="M162.585028,185.825829 C162.883051,183.843902 161.943785,181.915587 160.269492,180.594773 L175.857062,182.933074 L178.198023,167.36293 C178.970057,169.349371 180.539548,170.812679 182.524011,171.110363 C185.730509,171.591454 188.800565,168.850222 189.381356,164.987948 C189.961864,161.125674 187.833333,157.604538 184.626554,157.123729 C182.642373,156.826045 180.711864,157.764243 179.389548,159.436635 L181.730509,143.866491 L142.619492,138 L140.278814,153.570144 C139.506497,151.583702 137.937288,150.120395 135.952825,149.822711 C132.746328,149.34162 129.676271,152.082852 129.09548,155.945126 C128.514689,159.8074 130.643503,163.328254 133.85,163.809345 C135.834463,164.107029 137.764972,163.168831 139.087006,161.496439 L136.746328,177.066583 L152.333898,179.404601 C150.345198,180.175758 148.880509,181.743466 148.582486,183.725675 C148.100847,186.928529 150.845198,189.995098 154.711864,190.575229 C158.578531,191.155078 162.10339,189.028965 162.585028,185.825829" id="Fill-17" fill="#A13C2B"></path>
                    <path d="M122.716384,182.525398 C119.473729,182.525398 116.845198,179.359225 116.845198,175.453498 C116.845198,171.548053 119.473729,168.38188 122.716384,168.38188 C124.721751,168.38188 126.490113,169.594625 127.549435,171.442523 L127.549435,155.701388 L111.665254,155.701388 C113.524294,154.644398 114.744915,152.872966 114.744915,150.864234 C114.744915,147.625545 111.575141,145 107.664972,145 C103.755085,145 100.585311,147.625545 100.585311,150.864234 C100.585311,152.872966 101.805932,154.644398 103.664689,155.701388 L88,155.701388 L88,171.865206 C89.0214689,169.782829 90.8991525,168.38188 93.0528249,168.38188 C96.2951977,168.38188 98.9237288,171.548053 98.9237288,175.453498 C98.9237288,179.359225 96.2951977,182.525398 93.0528249,182.525398 C90.8991525,182.525398 89.0214689,181.124167 88,179.041789 L88,195.20589 L127.549435,195.20589 L127.549435,179.464472 C126.490113,181.312371 124.721751,182.525398 122.716384,182.525398" id="Fill-18" fill="#DD4531"></path>
                    <path d="M114.890678,229.144698 C114.890678,231.295641 113.488136,233.171191 111.403107,234.1915 L127.585593,234.1915 L127.585593,218.446978 C128.64435,220.296851 130.414124,221.511007 132.420621,221.511289 C135.662994,221.511289 138.291808,218.345117 138.291808,214.439389 C138.291808,210.533662 135.662994,207.36749 132.420621,207.36749 C130.414124,207.36749 128.64435,208.581927 127.585593,210.431801 L127.585593,194.686997 L111.834181,194.686997 C113.679661,193.628596 114.890678,191.864501 114.890678,189.864516 C114.890678,186.625545 111.720904,184 107.810734,184 C103.900847,184 100.731073,186.625545 100.731073,189.864516 C100.731073,191.864501 101.94209,193.628596 103.787571,194.686997 L88.0361582,194.686997 L88.0361582,211.074573 C87.0426554,208.866914 85.1025424,207.36749 82.8711864,207.36749 C79.6285311,207.36749 77,210.533662 77,214.439389 C77,218.345117 79.6285311,221.511289 82.8711864,221.511289 C85.1025424,221.511289 87.0426554,220.011865 88.0361582,217.804206 L88.0361582,234.1915 L104.218362,234.1915 C102.133616,233.171191 100.731073,231.295641 100.731073,229.144698 C100.731073,225.905726 103.900847,223.280181 107.810734,223.280181 C111.720904,223.280181 114.890678,225.905726 114.890678,229.144698" id="Fill-19" fill="#A13C2B"></path>
                    <path d="M74.97657,209.579537 C74.97657,212.108864 75.2440842,214.159356 72.7118808,214.159356 C70.1796774,214.159356 68.127135,212.108864 68.127135,209.579537 C68.127135,207.050493 66.8014288,205 72.7118808,205 C75.2440842,205 74.97657,207.050493 74.97657,209.579537" id="Fill-20" fill="#EC912D"></path>
                    <path d="M69.7579096,212 L68,213.379787 C68,213.379787 70.3858757,215.637388 71.2646893,215.512107 C71.7669492,215.386544 72.6460452,213.379787 72.6460452,213.379787 L69.7579096,212" id="Fill-21" fill="#EC912D"></path>
                    <path d="M87.3823891,225.499684 C87.3823891,225.499684 88.1866264,226.496009 88.5727846,225.917288 C88.9589428,225.33885 88.8623326,221 88.5727846,221 C88.2832366,221 87.8004682,223.988973 87.2213722,224.278192 C86.6422761,224.567411 87.3823891,225.499684 87.3823891,225.499684" id="Fill-22" fill="#EC912D"></path>
                    <path d="M69.2146883,216.240314 C69.2146883,216.240314 75.4093211,225.605368 86.6268352,224.1003 L86.4593211,225.940016 C86.4593211,225.940016 75.241807,230.287895 66.201129,220.588476 C66.201129,220.588476 64.0245753,218.581719 65.531355,216.073272 C67.0381346,213.564544 69.2146883,216.240314 69.2146883,216.240314" id="Fill-23" fill="#006D80"></path>
                    <path d="M59.2649718,222 C59.2649718,222 51.9819209,233.037446 59.7672316,241.064756 C59.7672316,241.064756 56,252.352765 56,255.864872 L57.7579096,255.864872 C57.7579096,255.864872 64.7898305,242.569824 65.2920904,241.064756 C65.7943503,239.559406 61.5251412,231.030689 63.5341808,226.515203 L59.2649718,222" id="Fill-24" fill="#2E1C15"></path>
                    <path d="M58,228 C58,228 59.090113,239.436427 70.3909605,241.694029 C70.3909605,241.694029 73.4468927,251.697905 75.6268362,254.453245 L77.0059322,253.364371 C77.0059322,253.364371 75.1036723,240.716045 74.5635593,239.224239 C74.0231638,237.732151 65.3793785,233.685059 64.1525424,228.898413 L58,228" id="Fill-25" fill="#2E1C15"></path>
                    <path d="M67.8497175,212 C67.8497175,212 59.6635593,215.960185 55,227.607954 C55,227.607954 62.5706215,233.492221 67.1480226,232.578571 C67.1480226,232.578571 66.5666667,222.241177 71.3929379,214.408842 C71.3929379,214.408842 68.4214689,213.465847 67.8497175,212" id="Fill-26" fill="#00A1A0"></path>
                    <path d="M81,221.009195 C81,221.009195 82.1720339,218.918917 82.5067797,219.002438 C82.8415254,219.085959 82.4231638,220.089619 82.4231638,220.089619 C82.4231638,220.089619 85.6878531,220.842153 85.7714689,221.176519 C85.8553672,221.510884 81.669774,222.012573 81.669774,222.012573 L81,221.009195" id="Fill-27" fill="#EC912D"></path>
                    <path d="M64.2734153,216.291364 C64.2734153,216.291364 68.4590085,223.816703 71.1378221,225.990784 C73.8166357,228.164864 81.8530763,221.642622 81.8530763,221.642622 L81.1833023,220.304878 L73.9841498,222.311635 L68.7940368,214.284325 C68.7940368,214.284325 66.9522289,212.277567 65.1107034,213.280946 C63.2688955,214.284325 64.2734153,216.291364 64.2734153,216.291364" id="Fill-28" fill="#007C91"></path>
                    <path d="M57.0781152,256 C57.0781152,256 58.0826349,257.505068 59.2128609,257.755912 C59.7151208,258.257602 56.0735954,258.006757 55.1947818,257.379504 C54.692522,257.003379 55.3202056,256 55.3202056,256 L57.0781152,256" id="Fill-29" fill="#2E1C15"></path>
                    <path d="M77.2508475,253.248587 C77.2508475,253.248587 79.0242938,253.614555 80.0048023,253 C80.7152542,253.004515 77.9477401,255.381472 76.8810734,255.552182 C76.2590395,255.637114 76,254.482495 76,254.482495 L77.2508475,253.248587" id="Fill-30" fill="#2E1C15"></path>
                    <path d="M70.3351377,205.733685 C70.3351377,205.733685 73.9766631,207.740724 75.7345727,205.106715 C75.7345727,205.106715 73.4744032,201.971016 70.209714,203.350802 C66.9450247,204.730307 67.9495445,205.98453 67.9495445,205.98453 C67.9495445,205.98453 66.6938947,206.611783 67.0704484,208.242414 C67.4472846,209.872763 69.079488,211.126986 69.079488,211.126986 C69.079488,211.126986 71.8419173,208.61854 69.8328778,206.360938 L70.3351377,205.733685" id="Fill-31" fill="#2E1C15"></path>
                    <path d="M74.180324,209 C74.180324,209 75.3732618,210.505068 75.498968,211.257602 C75.5616799,211.445806 74.2430358,211.445806 74.2430358,211.445806 C74.2430358,211.445806 73.7407759,210.066301 74.180324,209" id="Fill-32" fill="#E3662A"></path>
                    <path d="M164.165376,209.123087 C164.165376,209.123087 162.897862,209.310726 163.006619,208.623937 C163.115376,207.93743 166.13063,204.812735 166.343625,205.00884 C166.556619,205.204944 164.88289,207.729192 165.112551,208.334154 C165.34193,208.938833 164.165376,209.123087 164.165376,209.123087" id="Fill-33" fill="#EC912D"></path>
                    <path d="M184.188701,214.286917 C184.188701,214.286917 173.239266,216.810882 166.147458,208 L165,209.448635 C165,209.448635 170.130508,220.319886 183.373729,219.51233 C183.373729,219.51233 186.335311,219.555783 186.973729,216.700556 C187.611864,213.845611 184.188701,214.286917 184.188701,214.286917" id="Fill-34" fill="#006D80"></path>
                    <path d="M181,229.760033 C181,229.760033 182.00452,241.131844 184.181073,245.981695 C186.357627,250.831546 188.031921,256.015763 188.031921,256.015763 L186.190113,257.353507 C186.190113,257.353507 189.371186,257.520831 190.375706,256.851818 C190.877966,255.848439 189.036441,239.626777 189.203672,236.281993 C189.371186,232.937492 189.036441,228.254965 189.036441,228.254965 C189.036441,228.254965 183.846328,227.084263 181,229.760033" id="Fill-35" fill="#2E1C15"></path>
                    <path d="M170.0928,255.314138 C170.894777,255.632984 172.055794,255.28959 172.483477,255.141453 C172.432348,253.506307 172.124438,243.368967 172.347884,242.033199 C172.591105,240.579203 179.811161,235.43195 180.12811,230.851849 L185.599862,229 C185.599862,229 186.52472,239.634232 176.57585,243.591031 C176.57585,243.591031 175.495907,252.963704 174.000992,255.997259 L174.001839,255.997824 C174.001839,255.997824 173.958901,257.096292 173.376133,257.123097 C172.372743,257.145953 169.444212,255.437162 170.0928,255.314138" id="Fill-36" fill="#2E1C15"></path>
                    <path d="M181.008117,207.579537 C181.008117,210.108864 180.740885,212.159074 183.273089,212.159074 C185.805292,212.159074 187.857834,210.108864 187.857834,207.579537 C187.857834,205.05021 189.183541,203 183.273089,203 C180.740885,203 181.008117,205.05021 181.008117,207.579537" id="Fill-37" fill="#EC912D"></path>
                    <path d="M186.399153,203.733865 C186.399153,203.733865 182.75791,205.740622 181,203.106612 C181,203.106612 183.260169,199.971195 186.524859,201.3507 C189.789548,202.730486 188.785028,203.984709 188.785028,203.984709 C188.785028,203.984709 190.040678,204.611962 189.664124,206.242311 C189.287288,207.872942 187.655085,209.127166 187.655085,209.127166 C187.655085,209.127166 184.892373,206.618719 186.901695,204.361118 L186.399153,203.733865" id="Fill-38" fill="#2E1C15"></path>
                    <path d="M182.320812,207 C182.320812,207 181.127875,208.505068 181.002168,209.257602 C180.939457,209.445806 182.257818,209.445806 182.257818,209.445806 C182.257818,209.445806 182.760078,208.066019 182.320812,207" id="Fill-39" fill="#E3662A"></path>
                    <path d="M183.250847,211.086899 L183,212.67577 C183,212.67577 185.343785,212.759291 186.013559,211.839433 L185.929661,210 L183.250847,211.086899" id="Fill-40" fill="#EC912D"></path>
                    <path d="M182.181073,213.003379 C182.181073,213.003379 179.50226,227.05096 179,231.566163 C179,231.566163 185.529379,234.743623 189.54774,230.395743 C189.54774,230.395743 190.133616,217.35154 185.445763,212 C185.445763,212 183.101977,213.086899 182.181073,213.003379" id="Fill-41" fill="#00A1A0"></path>
                    <path d="M169.774848,221.031748 C169.774848,221.031748 168.635017,218.923694 168.298859,219.002136 C167.962701,219.080578 168.366091,220.090446 168.366091,220.090446 C168.366091,220.090446 165.090102,220.793037 165.001402,221.126274 C164.912419,221.459228 169.08982,222.024687 169.08982,222.024687 L169.774848,221.031748" id="Fill-42" fill="#EC912D"></path>
                    <path d="M186.659322,217.320335 C186.659322,217.320335 182.359322,224.781058 179.647458,226.914225 C176.935876,229.04711 169,222.403254 169,222.403254 L169.690113,221.07595 L176.85791,223.192187 L182.170056,215.245012 C182.170056,215.245012 184.04209,213.266471 185.868079,214.297784 C187.69435,215.329097 186.659322,217.320335 186.659322,217.320335" id="Fill-43" fill="#007C91"></path>
                    <path d="M140,156.374305 C140,156.374305 140.071751,155.196831 140.288701,154.962916 C140.505367,154.729002 141.207062,153.729856 141.266949,154.069864 C141.326554,154.409873 141.058757,154.94119 141.058757,154.94119 C141.058757,154.94119 142.717797,153.928782 143.118079,154.208972 C143.518079,154.489444 142.204237,156.585647 141.847175,157.019334 C141.489831,157.453022 140.760169,157.617242 140.760169,157.617242 L140,156.374305" id="Fill-44" fill="#EC912D"></path>
                    <path d="M123.273415,152.291082 C123.273415,152.291082 127.459009,159.816421 130.137822,161.990501 C132.816636,164.164582 140.852794,157.642622 140.852794,157.642622 L140.183302,156.304596 L132.98415,158.311353 L127.793754,150.284325 C127.793754,150.284325 125.952229,148.277567 124.110703,149.280946 C122.268896,150.284325 123.273415,152.291082 123.273415,152.291082" id="Fill-45" fill="#007C91"></path>
                    <text id="Dr.-BORIS" filter="url(#filter-4)" font-family="Averta-Semibold" font-size="9" font-weight="500" fill="#000000">
                        <tspan x="71.4655762" y="34">Dr. BORIS</tspan>
                    </text>
                    <text id="LIHAT-TIM" filter="url(#filter-6)" font-family="Averta-Semibold" font-size="11" font-weight="500" fill="#000000">
                        <tspan x="100.300781" y="285">LIHAT TIM</tspan>
                    </text>
                    <text id="LIHAT-MOBILISASI-TIM" filter="url(#filter-8)" font-family="Averta-Semibold" font-size="11" font-weight="500" fill="#000000">
                        <tspan x="273.349121" y="285">LIHAT MOBILISASI TIM</tspan>
                    </text>
                    <text id="TULIS-LAPORAN" filter="url(#filter-10)" font-family="Averta-Semibold" font-size="11" font-weight="500" fill="#000000">
                        <tspan x="501.112305" y="285">TULIS LAPORAN</tspan>
                    </text>
                    <text id="DASHBOARD" filter="url(#filter-12)" font-family="Averta-Semibold" font-size="9" font-weight="500" fill="#000000">
                        <tspan x="129.025635" y="34">DASHBOARD</tspan>
                    </text>
                    <ellipse id="Oval-3" stroke="#979797" stroke-width="0.5" fill="#4BA294" fill-rule="nonzero" cx="44.5" cy="29.5" rx="14.5" ry="13.5"></ellipse>
                    <path d="M593.071298,259.608085 C592.186371,259.608085 591.296359,259.571613 590.39654,259.482702 C586.958344,259.143206 583.473296,258.973367 580.052351,258.488528 C572.200777,257.37623 564.346116,257.310181 556.437521,257.310181 C553.297872,257.310181 550.158405,257.279153 547.019482,257.279153 C542.448114,257.279153 537.878199,257.34502 533.315729,257.668185 C526.19999,258.172258 519.073175,258.252823 511.944543,258.252823 C510.867848,258.252823 509.790063,258.251008 508.713187,258.248468 C508.643453,258.248286 508.574082,258.248286 508.504167,258.248286 C504.557133,258.248286 500.625172,258.505585 496.684131,258.687581 C492.724748,258.870302 488.874506,259.170242 484.938368,259.170242 C484.583162,259.170242 484.22723,259.167883 483.87039,259.162621 C479.937158,259.105464 473.948235,257.892278 471.142,254.800706 C469.47602,252.963871 469.701928,248.544798 471.370451,246.773649 C472.099204,245.99994 473.274325,245.393891 474.234252,245.025363 C476.968392,243.975121 479.75102,243.972581 482.608283,243.950806 C482.643332,243.950625 482.678562,243.950444 482.713792,243.950444 C484.685221,243.950444 486.734918,244.37123 488.624082,244.955504 C490.343271,245.487157 492.099688,245.673508 493.848114,246.004657 C495.278925,246.275383 496.809978,246.405121 498.32378,246.405121 C499.308949,246.405121 500.286855,246.350141 501.225172,246.243448 C503.763731,245.954758 506.320451,245.820484 508.866455,245.592944 C512.028078,245.310423 515.122145,244.697843 518.272872,244.369597 C519.850051,244.205383 521.390729,243.797843 522.964458,243.612399 C527.137944,243.121028 531.319058,243.014698 535.500172,243.001452 C535.835402,243.000363 536.170451,243 536.505681,243 C538.499809,243 540.4943,243.015786 542.487339,243.015786 C544.105741,243.015786 545.72269,243.010706 547.340184,243.010706 C552.874022,243.010706 558.403683,243.070766 563.92263,243.601875 C565.63292,243.766633 567.331952,243.667016 569.018453,244.05877 C570.711673,244.452157 572.421056,244.811069 574.155862,244.881109 C575.640063,244.940988 577.128804,244.960766 578.618998,244.960766 C581.269966,244.960766 583.925656,244.898347 586.567908,244.888004 C586.832315,244.887097 587.200051,244.885282 587.656407,244.885282 C593.568695,244.885282 614.173901,245.17252 612.695874,250.992399 C612.128017,253.228609 608.826383,256.139093 606.974446,257.075927 C604.634918,258.259536 602.076564,258.959577 599.501322,259.195645 C597.330681,259.394516 595.2147,259.608085 593.071298,259.608085" id="Fill-4" fill="#F6EAEA"></path>
                    <polyline id="Fill-5" fill="#B97262" points="501.320157 184.337641 501 182.177097 501.91816 182 502.465315 183.431109 502.860654 183.146048 502.90914 185.028246 501.97954 185.340887 501.320157 184.337641"></polyline>
                    <polyline id="Fill-6" fill="#8CABEF" points="515.91586 196.178145 507.644431 194.027762 503.812893 185 502 185.714738 504.159564 197.375181 513.687651 202.279093 515.91586 196.178145"></polyline>
                    <polyline id="Fill-7" fill="#D67086" points="586.674455 195 578.837228 200.714456 572.002785 197.764052 571 199.606331 576.17609 203.128851 579.077482 204.21248 586.674455 200.557863 586.674455 195"></polyline>
                    <path d="M591.655951,159.014061 L615.658312,161.007307 C617.879983,161.191843 619.531254,163.140997 619.346569,165.360876 L618.060673,180.820009 C617.876896,183.030997 615.940516,184.678396 613.726835,184.507468 L609.867876,184.209343 L604.957646,190.008718 C604.814184,190.178194 604.537428,190.066057 604.552501,189.844686 L604.964547,183.802166 L589.693058,182.497892 C587.475564,182.308456 585.829922,180.361299 586.014063,178.145049 L587.299051,162.699525 C587.483554,160.479646 589.434281,158.829706 591.655951,159.014061" id="Fill-8" fill="#5D66D3"></path>
                    <polyline id="Fill-9" fill="#FFFFEE" points="592 164.798206 611.170944 166.432177 611.239225 165.633972 592.068099 164 592 164.798206"></polyline>
                    <polyline id="Fill-10" fill="#FFFFEE" points="592 170.798024 614.865375 172.746996 614.933475 171.948972 592.068281 170 592 170.798024"></polyline>
                    <polyline id="Fill-11" fill="#FFFFEE" points="591 176.798206 613.865194 178.747177 613.933293 177.948972 591.068099 176 591 176.798206"></polyline>
                    <polyline id="Fill-12" fill="#AEAEAF" points="573.748305 221.46377 574.208293 232.123327 572.859927 250.247984 570.842373 250.391331 568.391162 233.929859 565 220 573.748305 221.46377"></polyline>
                    <polyline id="Fill-13" fill="#3B3387" points="571.077361 251.244758 573.336804 252.179778 574.350121 251.0125 573.181719 250 571 250.154778 571.077361 251.244758"></polyline>
                    <polyline id="Fill-14" fill="#AEAEAF" points="559.442554 217.82869 559 225.886048 560.31368 249.843649 562.333777 249.944355 565.36138 234.231552 568.03178 217 559.442554 217.82869"></polyline>
                    <polyline id="Fill-15" fill="#3B3387" points="562.276574 251.200484 560.03747 252.182681 559 251.036815 560.146792 250 562.331235 250.108871 562.276574 251.200484"></polyline>
                    <path d="M572.014286,194.674819 L565.710291,194 C565.710291,194 562.20345,194.374516 559.823789,202.69625 C558.499939,207.325988 558.096973,214.620524 558,220.181472 C558.14891,220.974778 559.013862,224.449577 562.671247,223.860222 C568.951998,222.847903 572.295036,221.835766 575.030085,222.341835 C577.360169,222.847903 577.163136,219.64256 576.906901,217.196593 L575.978571,209.628246 L572.014286,194.674819" id="Fill-16" fill="#353A85"></path>
                    <path d="M570.369099,186.478541 C568.780297,186.128521 567.144825,185.814972 565.554208,186.129791 C565.205902,186.198561 564.831992,186.319771 564.64313,186.620255 C564.569764,186.736565 564.531084,186.870839 564.495309,187.003662 C564.093796,188.494468 563.584777,190.704549 564.56704,192.078138 C564.754268,192.340154 565.005963,192.548097 565.276181,192.716847 C565.637561,192.942392 566.037622,193.0959 566.451484,193.177553 C566.365951,193.548259 566.246823,193.911162 566.095733,194.260456 C566.459474,194.808259 568.156145,194.873944 568.469946,194.348642 C568.487561,193.894105 568.504994,193.439388 568.522609,192.98467 C568.729268,192.901384 568.928663,192.799952 569.116254,192.676747 C569.841375,192.199529 570.319159,191.475174 570.596641,190.664993 C570.89882,189.782775 571.324123,188.944105 571.600152,188.045013 C571.700757,187.717493 571.779934,187.343521 571.607597,187.047392 C571.424002,186.73221 571.027755,186.624972 570.671278,186.545497 C570.570672,186.523178 570.470067,186.500678 570.369099,186.478541" id="Fill-17" fill="#B97262"></path>
                    <path d="M564.910294,186.933572 C565.695524,186.428774 566.873732,186.211576 567.612291,186.265104 C569.844858,186.426596 570.662775,188.064741 570.781904,190.11587 C571.396976,189.334903 572.551032,188.352342 572.620766,187.347282 C572.677788,186.52458 572.563926,185.402846 572.102666,184.692282 C571.671008,184.027443 570.567436,183.662362 569.911141,183.277141 C569.292436,182.914056 568.673913,182.550971 568.055027,182.187705 C567.926456,182.112221 567.794252,182.035286 567.647158,182.009882 C567.473187,181.979762 567.296129,182.024036 567.125064,182.06831 C565.662836,182.445911 564.20079,182.823512 562.738381,183.201112 C562.457449,183.273693 562.137473,183.379661 562.033962,183.650387 C561.970947,183.815326 562.007993,183.999318 562.045766,184.171516 C562.211928,184.929983 562.530451,185.705326 562.609446,186.473592 C562.698611,186.919963 562.965015,189.207887 563.756056,188.943874 C563.988502,188.564278 564.023187,188.096858 564.204059,187.690407 C564.337896,187.390104 564.591771,187.138249 564.910294,186.933572" id="Fill-18" fill="#322E7F"></path>
                    <polyline id="Fill-19" fill="#353A85" points="565.345702 194 563.015799 194.708387 554.506477 203.615847 554 206.551371 558.067797 213.26254 559.166283 210.802782 557.444007 205.842984 560.179419 203.919597 563.826271 195.720706 565.345702 194"></polyline>
                    <polyline id="Fill-20" fill="#292949" points="550.674818 249.278871 550.839346 250.55756 548.444249 252.16504 547 251.050746 548.115375 249.60748 550.510109 248 550.674818 249.278871"></polyline>
                    <polyline id="Fill-21" fill="#292949" points="551.408475 248.825383 549.561441 232.517238 551.783656 214.260302 551.283898 210.376694 541.358111 210 541 216.320867 542.666162 232.542097 548.935109 249.65879 551.408475 248.825383"></polyline>
                    <polyline id="Fill-22" fill="#3B3387" points="539.766949 192 534.774274 193.35871 529 203.582056 531.73523 206.112581 535.584746 201.557601 539.766949 192"></polyline>
                    <polyline id="Fill-23" fill="#292949" points="534.02615 211.582077 534 228.039194 537.315254 249.224758 539.701453 249.200988 541.013136 229.609294 544.083051 210 534.02615 211.582077"></polyline>
                    <polyline id="Fill-24" fill="#292949" points="539.870763 250.289214 537.303148 251.604194 536 250.327863 537.277361 249.025766 539.857869 249 539.870763 250.289214"></polyline>
                    <path d="M552.837174,216.577798 C552.814474,215.864512 552.774704,215.269351 552.769075,215.056871 C552.717864,213.143826 552.547344,211.235137 552.307634,209.33552 C552.092804,207.633322 551.821678,203.407496 551.530031,201.715822 C551.289414,200.319189 550.450612,196.832778 549.844438,195.537032 C548.337356,192.315177 548.803155,192.017597 542.182453,191.060984 C539.280879,190.641649 538.594983,192.448544 536.222767,194.526347 C535.988869,194.731206 536.001763,195.951286 535.947465,196.274451 C535.851944,196.843484 535.749523,197.411427 535.632029,197.976831 C535.539777,198.421387 535.438082,198.86431 535.323675,199.304331 L535.324039,199.304149 C535.324039,199.304149 533.332453,208.359492 532.015503,210.282697 C530.698554,212.205722 527.978034,214.894472 532.529063,216.536246 C533.33554,216.796629 534.147101,217.044492 534.986629,217.177133 C534.986629,217.177133 538.708663,216.763605 540.622888,216.778121 C542.385842,216.791185 544.15606,216.969371 545.889232,217.26804 C547.048191,217.461649 548.230758,217.742899 549.267501,218.283988 C550.256666,218.800218 550.970528,219.559774 551.97422,220.094149 C552.069196,220.144774 552.173433,220.197214 552.281484,220.182153 C552.857876,220.102496 552.884934,218.078766 552.837174,216.577798" id="Fill-25" fill="#3B3387"></path>
                    <path d="M547.944505,175.175684 C547.944505,175.175684 546.995837,174.705543 547.000014,174.584151 C547.004372,174.46276 547.163815,172.74768 547.163815,172.74768 L547.785607,172.39276 L548.047108,171.661873 C548.047108,171.661873 547.336697,170.419111 547.467266,170.053849 C547.597835,169.688224 548.54614,171.304232 548.54614,171.304232 L548.893355,172.293688 L548.981975,173.891369 L547.944505,175.175684" id="Fill-26" fill="#EFBFA5"></path>
                    <polyline id="Fill-27" fill="#EFBFA5" points="537.808898 199.334375 539.749637 197.85627 539.15345 197 537.600242 197.718004 537.506538 197.182359 536 198.649032 536.499213 199.622883 537.808898 199.334375"></polyline>
                    <polyline id="Fill-28" fill="#3B3387" points="537.915617 200.03244 536.358959 198 531 201.229294 532.320944 205.540766 537.915617 200.03244"></polyline>
                    <path d="M541.957749,191.932749 C542.291889,192.097688 543.080206,192.15666 543.902846,191.834765 C544.068463,191.769987 544.180327,191.610309 544.177967,191.432487 C544.171429,190.933313 544.131296,190.434503 544.057749,189.940773 C544.674819,189.72412 545.38741,189.39914 545.494916,188.754442 C545.528875,188.551579 545.493645,188.34418 545.458596,188.141317 C545.313681,187.303011 545.168584,186.464704 545.02385,185.626398 C544.973548,185.336257 544.920158,185.03795 544.762349,184.789543 C544.485594,184.353515 543.948063,184.162809 543.439044,184.074442 C542.13971,183.849261 540.723971,184.130329 539.716647,184.980612 C539.448427,185.206882 539.205993,185.479059 539.087954,185.80912 C538.90563,186.318273 539.04201,186.879866 539.179298,187.402809 C539.306235,187.885471 539.432991,188.368132 539.559928,188.850793 C539.705751,189.406035 539.916405,190.037124 540.451756,190.24543 C540.735957,190.355753 541.07155,190.323636 541.328875,190.487124 C541.78287,190.77545 541.721671,191.449906 541.957749,191.932749" id="Fill-29" fill="#EFBFA5"></path>
                    <path d="M534.674938,184.068146 C534.547456,183.85875 534.409986,183.656795 534.256172,183.467178 C533.92294,183.056734 533.512347,182.705081 533.244308,182.249456 C532.976269,181.794012 532.88202,181.176533 533.20363,180.757017 C533.411197,180.486291 533.748061,180.350928 534.075482,180.254758 C535.154356,179.937581 536.318763,179.915988 537.408715,180.193246 C538.446729,180.457258 539.375785,180.894375 540.420882,180.504436 C541.402783,180.138085 542.111923,180.28742 543.137952,180.653226 C544.248606,181.049154 545.739163,181.14242 546.74449,181.701472 C547.164163,181.934819 547.499211,182.299537 547.760168,182.702541 C548.664889,184.098448 548.669792,186.023105 547.772516,187.42373 C547.571124,187.738004 547.330325,188.025061 547.077359,188.299416 C546.553448,188.866996 545.926754,189.568307 545.205991,189.778609 C545.188739,189.134456 545.776209,187.103287 545.280991,186.575262 C544.495216,185.737319 542.718642,186.029637 541.744005,186.235948 C540.680749,186.460948 539.732988,187.213246 538.678812,187.374012 C537.920277,187.489779 536.952177,187.117984 536.307323,186.726412 C535.511378,186.24248 535.140737,184.832238 534.674938,184.068146" id="Fill-30" fill="#292949"></path>
                    <polyline id="Fill-31" fill="#3B3387" points="546 192.270363 551.103269 189.587964 547.60115 175.30246 550.013499 174 556.109019 189.587964 549.583111 197.457157 546 192.270363"></polyline>
                    <polyline id="Fill-32" fill="#292949" points="508.11023 250.08254 508 251.165081 510.056961 252.467903 511.250424 251.495141 510.277058 250.302641 508.220278 249 508.11023 250.08254"></polyline>
                    <polyline id="Fill-33" fill="#353A85" points="508.334504 216.540363 508 219.828085 510.937893 234.520766 508.336138 249.204556 510.441586 249.852339 517.249153 232.393609 517.622518 227.05621 516.700545 216 508.334504 216.540363"></polyline>
                    <polyline id="Fill-34" fill="#353A85" points="524.492433 218.307722 524.559988 232.19748 521.8204 250.087339 519.806295 250.073911 518.645157 233.541855 516 217 524.492433 218.307722"></polyline>
                    <polyline id="Fill-35" fill="#292949" points="519 250.087984 521.170642 251.190665 522.266949 250.10994 521.185169 249.014516 519.007264 249 519 250.087984"></polyline>
                    <path d="M525.322781,216.200938 C523.869996,211.70366 523.715093,206.981382 523.292514,202.296483 C523.167212,200.914366 523.0341,199.501584 522.458253,198.23868 C521.797054,196.788156 520.703834,196.022793 519.430468,195.604547 C517.809524,195.072168 515.89657,195.102834 514.211159,195.000313 C512.612006,194.950051 511.197357,200.956644 509.566062,203.868398 C508.566364,205.652793 507.53634,207.231059 506.862067,209.177672 C506.214851,211.045717 505.593422,212.946785 505.216788,214.890495 C504.648386,217.825112 503.194512,219.874245 504.583011,220.872592 C504.710311,220.914507 504.83289,220.956241 504.949294,220.997793 C507.226897,221.813055 509.583677,222.416563 511.983495,222.733197 C514.112369,223.013902 516.274657,223.065072 518.41243,222.854406 C521.338519,222.566261 524.173628,222.153096 526.753229,220.628358 C526.276352,219.152612 525.799657,217.676866 525.322781,216.200938" id="Fill-36" fill="#8CABEF"></path>
                    <path d="M514.147811,190.5174 C515.058707,187.769316 519.072388,186.812158 520.005439,190.00607 C520.285644,190.965767 520.454531,191.984074 520.263853,192.965545 C520.073356,193.947199 519.472993,194.888933 518.556831,195.291211 L518.541213,195.297743 C518.576988,195.55232 518.612763,195.807078 518.648538,196.061836 C518.656165,196.116634 518.662703,196.177058 518.631831,196.222965 C518.596782,196.275223 518.52723,196.288832 518.464942,196.298086 C518.160584,196.343449 517.856226,196.388812 517.551867,196.434174 C517.401141,196.456674 517.243877,196.478812 517.09878,196.43236 C516.780802,196.330566 516.648598,195.94988 516.634615,195.616553 C516.631165,195.536896 516.632073,195.456332 516.633344,195.375767 C514.832255,194.759195 513.55217,192.313771 514.147811,190.5174" id="Fill-37" fill="#B97262"></path>
                    <path d="M518.32391,185.011262 C519.059019,184.902028 519.684806,185.614226 520.362893,185.988016 C520.926937,186.299205 521.566525,186.381584 522.151271,186.639427 C522.736017,186.897089 523.310593,187.435274 523.322942,188.108822 C523.915496,187.800718 524.557264,187.48481 525.221186,187.612552 C525.885109,187.740476 526.501453,188.532512 526.237046,189.185375 C526.000061,189.76983 525.236804,189.907552 524.982748,190.483117 C524.581235,191.393278 525.667191,192.807149 524.92609,193.410839 C524.74776,193.556 524.505508,193.591201 524.330266,193.740536 C524.112893,193.926161 524.042978,194.244972 523.946186,194.528218 C523.507446,195.812895 522.211562,196.651927 520.931477,196.480274 C520.135714,196.107572 519.500847,195.338036 519.216465,194.456907 C518.873789,193.394689 519.442554,193.023802 519.538438,192.026726 C519.643402,190.937109 519.29655,189.783258 518.610109,188.936968 C518.163196,188.386262 517.523971,187.911766 516.848245,187.847351 C516.573668,187.821222 516.660109,188.050032 516.351211,187.837734 C516.218462,187.746645 516.037591,187.401887 516,187.236766 C516.739104,186.642693 517.357082,185.154972 518.32391,185.011262" id="Fill-38" fill="#322E7F"></path>
                    <path d="M511.116035,187.082445 C510.736858,187.18805 510.325176,187.172445 509.963977,187.330671 C509.421544,187.568372 509.454413,188.131054 509.300781,188.619703 C509.130805,189.160973 508.88365,189.887324 508.526447,190.30811 C508.269122,190.611497 507.908832,190.784239 507.595212,191.018312 C507.281774,191.252203 506.993396,191.597868 507.000115,192.019562 C507.006471,192.4193 507.275418,192.778211 507.314643,193.177223 C507.362585,193.772384 507.259619,194.077042 507.443214,194.685268 C507.538009,194.999179 507.644062,195.331598 507.879776,195.545711 C508.19049,195.827505 508.633045,195.822243 509.021665,195.757284 C509.410103,195.692324 509.811798,195.584542 510.195151,195.713372 C511.026144,195.992626 510.871059,196.832566 511.092246,197.536417 C511.428929,198.607707 512.671967,199.232808 513.622996,198.851941 C514.429292,198.528957 514.895817,197.593574 514.859498,196.669985 C514.841338,196.207647 514.657016,195.77688 514.643578,195.313997 C514.630684,194.867626 514.882561,194.249602 514.477779,193.895409 C514.378989,193.809219 514.252597,193.763675 514.163977,193.665328 C514.092427,193.585852 514.052658,193.47934 514.027779,193.372828 C513.94152,193.004118 514.022875,192.601659 514.24043,192.31932 C514.396967,192.116457 514.621059,191.96803 514.716943,191.723251 C514.82681,191.442546 514.739825,191.114481 514.72112,190.80438 C514.676265,190.054804 515.086495,189.319743 515.711374,189.030328 C516.123239,188.839804 516.494243,188.727122 516.854171,188.436981 C516.909013,188.392889 517.727839,187.669804 517.748904,187.826034 C517.712222,187.554038 517.553323,187.316155 517.392427,187.097868 C517.127658,186.739139 516.833832,186.389663 516.461193,186.174824 C515.255745,185.480046 515.197633,187.094784 514.229897,186.882304 C513.996544,186.831134 513.820757,186.617384 513.610829,186.489643 C513.213856,186.248675 512.726628,186.334864 512.320757,186.515409 C511.914885,186.696134 511.542972,186.963776 511.116035,187.082445" id="Fill-39" fill="#322E7F"></path>
                    <polyline id="Fill-40" fill="#5D66D3" points="590 222.968367 598.853269 220 596.60799 235.283669 597.326937 249.574254 595.715799 249.574254 591.962349 236.884254 590.279661 224.269556 590 222.968367"></polyline>
                    <polyline id="Fill-41" fill="#292949" points="595.385835 249 597.179479 249.006169 597.594068 250.530363 597.548487 250.542339 597.559746 250.543972 594.546308 252.213508 593.13293 252.329819 593 250.715806 593.388438 250.448165 595.385835 249"></polyline>
                    <polyline id="Fill-42" fill="#5D66D3" points="583 222.700746 584.939649 249.916129 586.465254 250.104476 588.757385 235.033468 592.182324 221 583 222.700746"></polyline>
                    <polyline id="Fill-43" fill="#292949" points="584.33408 250 582 251.235504 582.183959 252.324577 586.305872 251.823952 586.109201 250.256754 584.33408 250"></polyline>
                    <path d="M601.396852,227.600464 C601.581719,223.149093 597.602724,208.99369 597.602724,208.99369 L597.60345,208.993508 C597.182688,207.663468 596.861622,206.310565 596.669492,204.954214 C596.532748,203.988528 593.636985,193.013972 593.828753,193 C591.83408,193.145524 587.987833,192.674294 586.510169,194.08998 C586.46822,194.130444 586.427724,194.172359 586.389588,194.215907 C585.237712,195.528528 584.639346,198.186431 584.094552,199.822036 C583.379056,201.970786 582.82954,204.174879 582.454177,206.408004 C582.126029,208.360786 581.931174,210.333347 581.793341,212.307903 C581.674758,214.005383 581.768826,215.693246 581.710896,217.363145 C581.646973,219.211774 581.09201,221.215907 580.677966,223.014274 C580.261199,224.825343 579.732022,226.614819 579,228.325363 C580.980327,229.20123 583.18638,229.437843 585.352119,229.446008 C587.517857,229.454355 589.68069,229.245685 591.846247,229.27871 C593.677482,229.307016 595.531053,229.50625 597.325424,229.139536 C598.75224,228.847581 600.069189,228.213044 601.397034,227.600464 L601.396852,227.600464" id="Fill-44" fill="#D67086"></path>
                    <path d="M586.615255,188.592782 C585.704904,189.042238 584.755872,190.200806 584.814528,191.279355 C584.842676,191.798669 585.130146,192.202218 585.138318,192.759274 C585.158475,193.857419 586.824819,195.007097 585.804964,196.06623 C585.280691,196.610585 584.461138,196.717278 583.709141,196.792762 C583.617797,196.801835 583.522095,196.810544 583.437652,196.774617 C583.298548,196.716008 583.230812,196.551431 583.23408,196.400645 C583.237168,196.249859 583.295461,196.106512 583.341042,195.962802 C583.819734,194.459657 583.097155,192.706653 583.011804,191.17502 C582.926635,189.646472 583.288741,187.996169 584.543039,187 C585.38402,187.25621 586.010715,187.611129 586.424214,188.386472 L586.615255,188.592782" id="Fill-45" fill="#292949"></path>
                    <path d="M587.023837,194.744078 C585.98673,194.613433 585.105253,193.848796 584.622021,192.922485 C584.13897,191.996356 584.004951,190.926518 584.000047,189.882082 C583.983522,186.406558 588.287759,186.171941 590.018026,188.65311 C591.526016,190.815469 590.039273,195.123312 587.023837,194.744078" id="Fill-46" fill="#EFBFA5"></path>
                    <path d="M592.718619,195.316163 C592.184357,195.164107 591.65518,194.996264 591.241682,194.545357 C590.573038,193.816466 590.373461,192.443784 590.05857,191.535619 C589.726791,190.57828 589.334539,189.544006 588.463776,189.025054 C587.895011,188.686103 587.322614,188.712232 586.699369,188.823824 C586.272614,188.900216 586.287868,189.064248 585.883449,188.906566 C585.573643,188.78572 585.235507,188.309772 585.112021,188.017091 C584.903546,187.523179 585.00397,186.939631 585.265653,186.471849 C585.668437,185.751849 586.229212,185.323623 587.01535,185.151425 C589.774733,184.54701 592.177638,185.781062 593.489866,188.333542 C594.120919,189.560155 594.127093,191.062574 594.773582,192.235478 C595.172553,192.959651 595.769103,193.377353 596.131391,194.160861 C597.071887,196.193663 598.788352,198.692615 599.132117,200.918119 C599.144648,201.000316 599.15282,201.092675 599.102335,201.159087 C598.999188,201.293905 598.785992,201.195921 598.652517,201.091042 C597.87328,200.478643 597.094042,199.866062 596.314805,199.253663 C596.008994,199.013058 595.698825,198.768099 595.470919,198.452736 C594.90397,197.667232 594.889987,196.510115 594.128364,195.911143 C593.712687,195.584349 593.213473,195.456788 592.718619,195.316163" id="Fill-47" fill="#292949"></path>
                    <path d="M605.495528,191.20796 C606.016715,191.305037 607.374524,190.941952 607.686509,190.463102 C608.406364,189.358061 606.698252,189.698283 606.081364,189.683404 C606.152005,189.469291 606.226824,189.264432 606.254064,189.045239 C606.279124,188.844372 604.446073,189.366227 604.269378,189.558202 C603.845528,190.018545 604.03893,190.366388 604.077248,190.948666 C604.550492,191.023787 605.023192,191.119775 605.495528,191.20796" id="Fill-48" fill="#EFBFA5"></path>
                    <polyline id="Fill-49" fill="#D67086" points="590.905508 201.521069 600.922276 199.855706 605.534685 190.509677 603.700908 189 598.820097 195.471835 593.720278 195.255363 589 195.459677 590.905508 201.521069"></polyline>
                    <polyline id="Fill-50" fill="#EFBFA5" points="490.764649 222.220585 482 219 483.806538 234.341734 482.759806 247.57754 482.731477 247.665544 482.752542 247.668085 482.682627 248.550121 484.22839 248.830645 488.404237 236.074415 490.44776 223.513246 490.764649 222.220585"></polyline>
                    <polyline id="Fill-51" fill="#292949" points="484.25109 249.045363 482.45799 249 482 250.511855 482.045218 250.525282 482.033777 250.526552 484.998366 252.281734 486.407748 252.438145 486.586985 250.828669 486.206174 250.54996 484.25109 249.045363"></polyline>
                    <polyline id="Fill-52" fill="#EFBFA5" points="496.129479 222.962581 493.419492 250.025907 491.898245 250.398609 490.021429 235.125464 487 221 496.129479 222.962581"></polyline>
                    <polyline id="Fill-53" fill="#292949" points="494.023366 249 496.321308 250.301915 496.105932 251.385181 492 250.766794 492.241707 249.205948 494.023366 249"></polyline>
                    <path d="M500.471246,229.100134 C501.025665,228.715275 501.03765,228.045355 501.036561,227.374529 C501.034926,226.114347 500.80811,224.826404 500.519006,223.601968 C499.968583,221.304791 499.344793,218.538198 499.070217,215.561666 C498.361258,207.869025 495.929842,202.706726 495.929842,202.706726 L495.14552,200.616404 C494.989527,200.344589 494.827723,200.075678 494.658837,199.810759 C493.678934,198.274589 491.977723,195.663682 490.15811,195.236363 C490.120156,195.227472 490.081839,195.218763 490.04334,195.210416 C488.130386,194.790718 485.679176,194.985597 483.950362,195.914811 C483.622214,196.091001 483.330568,196.32598 483.040919,196.559327 C482.19558,197.240678 481.506052,197.609751 481.141585,198.648017 C480.825241,199.54965 480.751694,200.533299 480.577178,201.467412 C480.222699,203.365577 480.011319,205.286424 479.728207,207.195658 C479.197578,210.77588 478.746851,214.367533 478.178994,217.94213 C477.886803,219.782049 477.592432,221.625053 477.454418,223.484025 C477.332384,225.127795 475.848365,226.796605 475.014466,228.26963 C474.724273,228.78223 478.891948,230.110638 479.265314,230.197372 C480.994127,230.599468 482.833171,230.496948 484.615374,230.504932 C488.520822,230.522533 492.426997,230.40223 496.323909,230.144025 C497.618885,230.05838 499.214769,229.811243 500.36374,229.167271 C500.401694,229.145859 500.437469,229.123541 500.471246,229.100134" id="Fill-54" fill="#474EBB"></path>
                    <path d="M487.796247,195.022135 C487.796247,195.022135 485.596368,194.428607 485.292373,199.388405 C484.988559,204.348203 484.481901,216.899574 483.772942,220.341167 C483.063801,223.78276 482,230.533123 482,230.533123 L488.736743,230.767014 L496.435775,230.159514 C496.435775,230.159514 493.801877,225.300966 493.39655,221.859554 C492.991404,218.417962 493.700545,205.461772 491.97845,200.603224 C490.256174,195.744494 489.894976,195.109232 487.796247,195.022135" id="Fill-55" fill="#8CABEF"></path>
                    <polyline id="Fill-56" fill="#474EBB" points="497.699031 205.830665 498.205508 206.437802 500.028935 203.90746 492.73523 195.809637 490 195 491.316768 198.542843 497.699031 205.830665"></polyline>
                    <polyline id="Fill-57" fill="#EFBFA5" points="491.600787 203.925383 490 202.706391 490.491586 202 491.77276 202.592258 491.850121 202.150423 493.092797 203.360161 492.680932 204.163448 491.600787 203.925383"></polyline>
                    <polyline id="Fill-58" fill="#474EBB" points="497.797337 203.804194 497.725424 203.961694 492.735654 203 492 204.635423 498.129661 206.818286 497.797337 203.804194"></polyline>
                    <path d="M491.223928,191.204711 C491.556797,192.203421 491.075199,193.26836 490.652257,194.17834 C490.277076,194.985437 490.14687,195.516546 491.098807,195.734288 C491.635248,195.857131 492.587185,196.086122 493.057705,195.675679 C493.413819,195.364671 493.213517,194.40461 493.040272,194.023199 C492.907887,193.731969 492.557584,193.584086 492.433008,193.289409 C492.381797,193.168018 492.374352,193.033018 492.372536,192.901284 C492.36509,192.362735 492.439546,191.82328 492.592814,191.30705 C492.69687,190.956485 492.83779,190.61209 492.869025,190.247917 C492.914606,189.71953 492.540877,189.104046 492.344388,188.618663 C491.978831,187.715578 490.706737,186.504389 489.641483,187.213139 C489.399049,187.374631 489.257766,187.647534 489.139727,187.913723 C489.069267,188.072675 489.002076,188.238522 489.000078,188.412352 C488.991906,189.105679 489.625502,189.222715 490.062972,189.552776 C490.6025,189.95959 491.011458,190.567453 491.223928,191.204711" id="Fill-59" fill="#292949"></path>
                    <path d="M488.649848,195.028289 C489.573819,194.81091 490.296216,194.035748 490.64325,193.152986 C490.990465,192.270224 491.008625,191.291293 490.91256,190.347744 C490.593129,187.207724 486.683867,187.409317 485.360199,189.81591 C484.206507,191.913309 485.963468,195.660648 488.649848,195.028289" id="Fill-60" fill="#EFBFA5"></path>
                    <path d="M488.861873,194.782156 C488.846256,195.139797 488.83082,195.497438 488.815203,195.855079 C488.813024,195.907519 488.808665,195.964858 488.771982,196.002418 C488.730215,196.045241 488.663024,196.045967 488.603278,196.043971 C488.31145,196.033809 488.019803,196.023829 487.728157,196.013668 C487.583605,196.008769 487.433241,196.002055 487.30576,195.933829 C487.026643,195.784132 486.968895,195.406168 487.013568,195.092983 C487.05806,194.779616 487.170469,194.464071 487.104004,194.154696 C487.706365,194.451188 488.27858,193.781088 488.880941,194.077579 L488.861873,194.782156" id="Fill-61" fill="#EFBFA5"></path>
                    <path d="M487.558856,185.112783 C486.532463,185.461351 485.87417,186.498529 484.872657,186.912964 C484.298081,187.150484 483.618359,187.180605 483.149655,187.588871 C482.099292,188.503569 482.943541,190.422964 482.080587,191.516029 C481.901168,191.743206 481.659279,191.915041 481.479134,192.141674 C481.090514,192.630686 481.039667,193.298065 481.005163,193.921351 C480.997173,194.061613 480.995902,194.214396 481.020236,194.355565 C481.155163,195.795021 483.246628,195.703569 484.077439,195.611392 C484.989243,195.510142 484.68543,195.004073 484.68543,195.004073 L484.652197,194.963609 C484.564848,194.379154 484.805284,193.755686 485.264909,193.383347 C485.43543,193.245263 485.637185,193.135121 485.757403,192.951492 C486.027258,192.539597 485.76957,191.993791 485.80934,191.502964 C485.968965,189.52623 489.289485,189.949738 490.22635,188.542581 C491.375502,186.816613 489.497415,184.454839 487.558856,185.112783" id="Fill-62" fill="#292949"></path>
                    <path d="M498.77774,158.000617 L470.182401,160.321021 C470.072171,160.329912 469.990996,160.432613 470.000803,160.550375 L471.795173,181.832472 C471.805161,181.950234 471.902498,182.038601 472.012546,182.029529 L478.475984,181.505134 L483.426529,187.250799 C483.571263,187.418642 483.850379,187.307775 483.835125,187.0884 L483.422171,181.103763 L494.601347,180.196686 C498.028829,179.918521 500.557038,176.722976 500.248139,173.058924 L498.995113,158.197674 C498.985306,158.079912 498.887788,157.991726 498.77774,158.000617" id="Fill-63" fill="#D67086"></path>
                    <polyline id="Fill-64" fill="#FFFFEE" points="495.873245 161.728165 478.06138 163.173427 478 162.445444 495.812046 161 495.873245 161.728165"></polyline>
                    <polyline id="Fill-65" fill="#FFFFEE" points="496.305993 167.728165 475.06138 169.452137 475 168.723972 496.244613 167 496.305993 167.728165"></polyline>
                    <polyline id="Fill-66" fill="#FFFFEE" points="496.305993 173.727984 475.06138 175.451956 475 174.723972 496.244431 173 496.305993 173.727984"></polyline>
                    <path d="M556,165.160544 C556,158.996815 563.084504,154 571.823547,154 C580.562772,154 587.647094,158.996815 587.647094,165.160544 C587.647094,171.324456 580.562772,176.321089 571.823547,176.321089 C571.476332,176.321089 571.131659,176.312742 570.789891,176.297137 C570.634806,176.289879 570.51368,176.429415 570.541646,176.582016 L571.802482,183.453226 C571.846429,183.692742 571.547881,183.839355 571.384806,183.658266 L563.151513,174.51746 C563.129903,174.493508 563.103571,174.474274 563.074516,174.460484 C558.810775,172.461069 556,169.042702 556,165.160544" id="Fill-67" fill="#3B3387"></path>
                    <path d="M578.685011,166.417137 C577.77248,166.417137 577.770846,165 578.685011,165 C579.597723,165 579.599175,166.417137 578.685011,166.417137" id="Fill-68" fill="#ECE9DE"></path>
                    <path d="M572.685147,166.417137 C571.772435,166.417137 571.770801,165 572.685147,165 C573.597677,165 573.59913,166.417137 572.685147,166.417137" id="Fill-69" fill="#ECE9DE"></path>
                    <path d="M564.685079,166.417137 C563.772367,166.417137 563.770914,165 564.685079,165 C565.597609,165 565.599062,166.417137 564.685079,166.417137" id="Fill-70" fill="#ECE9DE"></path>
                    <polyline id="Fill-71" fill="#EFBFA5" points="477 181.100302 477.599818 179 478.509262 179.216835 478.417373 180.746109 478.895157 180.649032 478.162954 182.383891 477.187046 182.285907 477 181.100302"></polyline>
                    <polyline id="Fill-72" fill="#474EBB" points="485.204782 197.264617 478.555932 191.89873 478.789467 182.095625 476.842918 182 474 193.513105 480.657748 201.905605 485.204782 197.264617"></polyline>
                    <polyline id="Fill-73" fill="#353A85" points="570 195.190343 574.333293 190.512702 573.312349 177.835585 575.216404 177 577.806538 189.859657 577.013862 193.064637 572.155932 199.760927 570 195.190343"></polyline>
                    <polyline id="Fill-74" fill="#B97262" points="575.661138 176.683105 575.661138 173.776613 574.330569 173 573.690617 174.179073 573.690617 175.3625 573 175.646472 573.757082 177.51869 575.661138 176.683105"></polyline>
                    <path d="M529.874402,149.044463 L553.035964,149.000008 C555.179911,148.995834 556.921255,150.729241 556.92525,152.871278 L556.953942,167.789141 C556.958119,169.922467 555.236932,171.658778 553.101884,171.675108 L549.37985,171.703596 L545.147889,177.660653 C545.024221,177.834483 544.750008,177.749745 544.746557,177.536358 L544.648313,171.71285 L529.908724,171.706499 C527.768409,171.705592 526.032695,169.973818 526.028518,167.835229 L526.000008,152.930612 C525.995831,150.788395 527.730455,149.048455 529.874402,149.044463" id="Fill-75" fill="#474EBB"></path>
                    <polyline id="Fill-76" fill="#FFFFEF" points="530 154.770262 548.503027 154.77498 548.503208 154.004718 530.000182 154 530 154.770262"></polyline>
                    <polyline id="Fill-77" fill="#FFFFEF" points="530 160.770262 552.068705 160.775887 552.068886 160.005625 530.000182 160 530 160.770262"></polyline>
                    <polyline id="Fill-78" fill="#FFFFEF" points="530 166.770444 552.068523 166.775887 552.068705 166.005625 530 166 530 166.770444"></polyline>
                    <path d="M529.166727,168.995222 C529.118059,166.043004 526.699536,163.686311 523.752018,163.701734 C523.754379,163.609012 523.756013,163.515928 523.75456,163.422117 C523.694996,159.816311 520.721328,156.941392 517.112611,157.000908 C515.148991,157.033206 513.403289,157.928851 512.228168,159.318589 C511.099718,158.075283 509.462611,157.304658 507.65117,157.334416 C504.42726,157.387581 501.835311,159.95367 501.712369,163.134154 C501.575807,163.125988 501.438337,163.121271 501.299233,163.123448 C498.323931,163.17244 495.951715,165.622218 496.000747,168.595121 C496.040335,170.986654 497.635129,172.986976 499.805952,173.652904 C499.547175,174.285807 499.409161,174.980041 499.421146,175.706936 C499.468725,178.584033 501.841303,180.877581 504.720541,180.830041 C504.941364,180.826412 505.158555,180.808629 505.37157,180.778327 L505.463458,186.350525 C505.471086,186.592037 505.783071,186.683488 505.868785,186.559012 L509.321691,181.545686 C510.155044,182.078791 511.148567,182.382178 512.212369,182.364577 C514.141667,182.332823 515.807647,181.256996 516.683495,179.685807 C517.587308,180.230887 518.649657,180.538267 519.783011,180.519577 C522.998386,180.466593 525.561824,177.819214 525.508797,174.606613 C525.506437,174.466896 525.497538,174.328811 525.485553,174.191633 C527.657103,173.468186 529.206497,171.403629 529.166727,168.995222" id="Fill-79" fill="#EED5D5"></path>
                    <path d="M518.587084,170.000103 C517.791503,170.013349 517.810571,171.248671 518.607423,171.235607 C519.403005,171.222542 519.383937,169.987038 518.587084,170.000103" id="Fill-80" fill="#D67086"></path>
                    <path d="M513.587152,170.000103 C512.791571,170.013167 512.810457,171.248671 513.607491,171.235425 C514.403072,171.222361 514.384004,169.987038 513.587152,170.000103" id="Fill-81" fill="#D67086"></path>
                    <path d="M506.587084,170.000106 C505.791503,170.01317 505.810571,171.248493 506.607423,171.235428 C507.403005,171.222364 507.383937,169.98686 506.587084,170.000106" id="Fill-82" fill="#D67086"></path>
                    <polyline id="Fill-83" fill="#B97262" points="524.006114 179.822863 522.802119 178 522 178.480121 522.5477 179.910867 522.062833 179.962036 523.283354 181.396593 524.184625 181.009919 524.006114 179.822863"></polyline>
                    <polyline id="Fill-84" fill="#8CABEF" points="520 195.767419 525.809685 189.955161 522.637167 180.675907 524.46477 180 530.640738 190.126089 522.682203 199.98254 520 195.767419"></polyline>
                    <polyline id="Fill-4" fill="#FFFFFE" points="259 188.84878 292.916463 203.535976 408.682622 188 259 188.84878"></polyline>
                    <polyline id="Fill-5" fill="#A5B5B6" points="290 241.307622 290 255.31753 408.983384 188 290 241.307622"></polyline>
                    <polyline id="Fill-6" fill="#ABBBBC" points="259 188.84878 287.065549 208.039634 287.065549 217.083994 292.916463 208.039634 408.682622 188 292.916463 203.535976 259 188.84878"></polyline>
                    <path d="M373.507326,179.110779 C373.503668,179.056816 373.490406,179.002395 373.454278,178.948431 C373.260832,178.662151 372.949857,178.494316 372.62196,178.462303 C372.458698,178.388675 372.26754,178.346602 372.070436,178.332425 C371.571503,178.297212 371.052448,178.326023 370.553973,178.348431 C369.914186,178.376785 369.583546,178.406053 369.024247,178.053005 C368.796503,177.90895 368.555497,178.083187 368.516168,178.280748 C368.201534,178.493401 367.896046,178.718858 367.606107,178.964895 C367.511442,179.045383 367.416778,179.142334 367.353668,179.246602 C367.080192,179.211846 366.849247,179.604681 367.122723,179.817334 C367.19132,179.871297 367.260375,179.917029 367.329887,179.958187 C367.369217,180.135169 367.484918,180.278767 367.720436,180.311236 C367.743302,180.31398 367.76571,180.305748 367.788576,180.305748 C368.096351,180.420992 368.470436,180.344163 368.879278,180.275566 C370.342235,180.031358 371.802448,179.775261 373.263576,179.525108 C373.483088,179.487608 373.564948,179.281816 373.507326,179.110779" id="Fill-7" fill="#F6C8AD"></path>
                    <path d="M366.746918,179.537207 C366.877711,179.629128 367.010333,179.603518 367.105455,179.526232 C367.110486,179.523488 367.115059,179.524402 367.120547,179.521201 C368.078626,178.991628 368.990059,178.425012 369.496766,177.418457 C369.532437,177.347573 369.532437,177.285378 369.517803,177.229585 C369.52512,177.156414 369.508656,177.078671 369.451034,177.005042 C369.006065,176.444829 368.529083,175.915256 368.031065,175.403518 C368.028321,175.399402 368.028321,175.394829 368.02512,175.390713 C365.823138,172.389341 362.79204,170.118762 360.548443,167.119219 C360.303321,166.791323 359.823138,167.209311 360.067345,167.536292 L361.011248,174.1555 L366.746918,179.537207" id="Fill-8" fill="#115D5E"></path>
                    <path d="M348.246413,200.355183 C347.920803,199.985671 347.680255,198.76875 347.630864,198.750457 C347.619431,198.611433 347.694889,198 347.694889,198 C346.894584,198.198933 346.096108,198.406098 345.300377,198.621951 C345.274309,198.629268 345.255559,198.642988 345.240011,198.659451 C345.170041,198.635671 345.084066,198.658537 345.074005,198.752744 C345.010438,199.339939 344.835285,200.535823 345.427968,200.941006 C345.452206,200.966159 345.486505,200.982165 345.532236,200.973933 C346.530559,200.802896 348.336962,200.335061 348.246413,200.355183" id="Fill-9" fill="#F6C8AD"></path>
                    <path d="M376.60491,196.126677 C376.61863,195.083994 376.605825,194.041768 376.565124,193 C376.565124,193 373.989514,193.210366 374.000032,193.379116 C374.050794,194.226524 374.11116,195.073476 374.180215,195.91997 C374.182044,195.94375 374.197136,195.957012 374.208111,195.97439 C374.163294,196.040244 374.171526,196.144055 374.269849,196.17378 C374.8543,196.348476 376.038752,196.753659 376.556892,196.221799 C376.56055,196.219055 376.56238,196.215854 376.566038,196.21311 C376.584788,196.191159 376.593935,196.167835 376.596678,196.144512 C376.59805,196.137195 376.60491,196.134909 376.60491,196.126677" id="Fill-10" fill="#F6C8AD"></path>
                    <path d="M372.621899,188.541504 C372.621899,188.541961 372.621899,188.542419 372.621899,188.542876 C372.621442,188.539675 372.621442,188.536016 372.621442,188.532815 C372.621442,188.536016 372.621899,188.53876 372.621899,188.541504 Z M378.13257,182.478852 C378.126168,182.25751 378.116564,182.034797 378.096899,181.81437 C378.097357,180.905224 377.924491,180.02123 377.207875,179.484797 C376.044003,178.614065 373.906503,179.152327 372.651168,179.300498 C369.448119,179.678699 366.276168,180.23937 363.127082,180.93312 C362.963363,180.968791 362.972052,181.834035 363.072662,182.360864 C363.102844,182.521382 363.393241,185.190285 363.398729,185.220467 C363.54507,186.038608 363.486991,187.219858 363.647966,187.28251 C363.117479,187.404614 368.957418,186.329461 372.389582,185.539675 C372.139887,188.305986 373.532875,193.658882 373.568546,193.665742 C373.582265,193.705528 374.208332,193.963913 374.490497,194.035711 C374.807875,194.117114 375.140802,194.116199 375.465497,194.089217 C375.909094,194.052632 376.362753,193.98312 376.580893,193.555071 C376.581351,193.553699 376.581351,193.552785 376.581808,193.55187 C376.613363,193.534949 376.638972,193.506138 376.648576,193.461778 C377.149796,191.021077 377.534857,188.563455 377.775405,186.086626 C377.814735,185.85751 377.860009,185.62748 377.919003,185.397449 C377.940497,185.314217 377.940497,185.2319 377.931808,185.150955 C378.181046,184.293486 378.156808,183.364217 378.13257,182.478852 Z" id="Fill-11" fill="#13121A"></path>
                    <path d="M365.166493,195.522445 C364.714664,190.644701 364.10003,185.79028 363.36192,180.949122 C363.351402,180.705372 363.22564,180.030372 363.222896,180.009793 C363.203231,179.882201 356.008262,181.041957 356.02564,181.132506 C356.041646,181.213909 356.058567,181.294396 356.07503,181.375799 C356.073658,181.469549 356.193475,182.00964 356.23692,182.179762 C356.87625,185.389213 357.57503,188.584488 358.335548,191.7665 C358.337835,191.77839 358.339207,191.790738 358.341036,191.802628 C358.348353,191.844701 358.36253,191.883116 358.373506,191.922902 C358.459024,192.27961 358.545457,192.63586 358.632347,192.99211 C355.668932,193.653848 352.750335,194.34028 350.016036,195.558116 C349.885701,195.594701 349.771371,195.647293 349.673506,195.714518 C348.784939,196.127476 347.916036,196.596683 347.073201,197.145921 C347.025182,197.177018 347.014664,197.222293 347.026097,197.263451 C347.016951,197.278543 347.003231,197.288604 347.002317,197.311012 C346.959786,198.447445 347.499878,200.161012 348.87,199.929152 C349.111006,199.91589 349.352926,199.900799 349.594847,199.886622 C349.840884,199.90903 350.089664,199.894396 350.346219,199.843177 C353.890884,199.620006 357.482195,199.263299 360.911615,198.37336 C361.215731,198.294701 361.598506,198.201409 362.00689,198.08525 C362.354451,198.046378 362.670914,197.946226 362.983262,197.765585 C364.125182,197.331591 365.184329,196.658878 365.166493,195.522445" id="Fill-12" fill="#1A1926"></path>
                    <path d="M347.996456,203.906805 C347.951639,203.3315 347.412005,202.924488 346.854078,202.917628 C346.515206,202.913512 346.101334,203.129366 345.771151,203.026469 C345.122675,202.824335 345.468407,200.945677 345.429078,200.892628 C344.968102,200.265189 345.09798,199.2815 345.200419,198.552994 C345.201791,198.545677 345.202706,198.537445 345.203621,198.529671 C345.204078,198.526927 345.201334,198.525555 345.201791,198.522811 C345.201791,198.514579 345.204078,198.507262 345.202706,198.498573 C345.14234,198.126774 344.662614,198.091104 344.354383,198.044 C343.819779,197.962598 343.283803,197.997354 342.758803,198.121744 C342.701639,198.053146 342.581822,198.039884 342.548895,198.147354 C341.954383,200.100555 341.572523,203.091866 342.871761,204.862598 C342.902401,204.903756 342.942645,204.914274 342.980602,204.908329 C342.997066,204.940341 343.02359,204.965494 343.069779,204.970982 C344.752706,205.171744 346.382584,204.874488 347.883041,204.087445 C347.91734,204.06961 347.937005,204.042628 347.946151,204.01336 C347.977249,203.989122 348.000114,203.956195 347.996456,203.906805" id="Fill-13" fill="#0A090B"></path>
                    <path d="M381.120583,197.620776 C380.406711,197.557209 379.719821,197.673367 379.007778,197.678855 C378.338723,197.683886 377.858083,197.561325 377.412656,197.026264 C377.194516,196.764221 377.055949,196.452331 376.87165,196.167422 C376.825918,196.096995 376.75229,196.102483 376.701071,196.142727 C376.698327,196.142727 376.69604,196.141812 376.692382,196.14227 C375.927747,196.235562 375.177747,196.188001 374.430491,196.00416 C374.346345,195.983581 374.297869,196.042575 374.291924,196.110258 C374.252138,196.124892 374.217839,196.155075 374.207321,196.207209 C373.949851,197.413611 373.93293,198.611325 374.152443,199.824129 C374.173022,199.938001 374.300613,199.954465 374.369211,199.900959 C374.381101,199.905075 374.385674,199.915593 374.400766,199.916508 C377.210979,200.077483 379.95168,199.753245 382.649851,198.944709 C382.685979,198.933733 382.883083,198.851416 382.878052,198.751264 C382.830491,197.825197 381.884302,197.688916 381.120583,197.620776" id="Fill-14" fill="#0A090B"></path>
                    <path d="M362.523476,147.327563 C362.154421,146.11613 360.808994,144.73549 359.462195,145.043721 C358.456098,145.274666 357.842835,146.412014 356.90122,146.761862 C355.717683,147.202715 354.317835,146.512166 353.083537,146.900886 C351.770122,147.314758 350.914482,148.366587 350.563262,149.624209 C350.533079,149.597685 350.508842,149.566587 350.474543,149.543264 C350.159909,149.333355 349.767988,149.328325 349.463415,149.553782 C349.133689,149.797075 349.529726,150.295093 349.859451,150.051801 C350.004421,149.944331 350.126982,150.035794 350.218902,150.176648 C348.030183,151.655154 347.518902,154.276953 348.428963,156.802258 C349.537957,159.877258 352.278659,160.601648 355.253506,160.37116 C355.398933,160.359727 355.478506,160.271008 355.505488,160.164453 C355.521037,160.151648 355.538415,160.143874 355.552592,160.126496 C356.673933,158.796618 357.108842,157.083508 358.06372,155.643416 C358.49497,154.994026 358.989329,154.388996 359.389482,153.719026 C359.954726,152.773752 360.11936,151.699514 361.090701,151.016282 C361.153811,150.971465 361.184451,150.916587 361.200915,150.859423 C362.141159,149.902715 362.948781,148.721923 362.523476,147.327563" id="Fill-15" fill="#1A1926"></path>
                    <path d="M378.464212,151.937662 C378.465584,151.938576 378.466956,151.939491 378.468328,151.940405 C378.466956,151.941777 378.464669,151.942692 378.462383,151.944064 C378.463297,151.941777 378.463297,151.939948 378.464212,151.937662 Z M377.545005,152.674857 C377.542261,152.67257 377.540889,152.667997 377.538145,152.66571 C377.539517,152.664338 377.540889,152.662509 377.542261,152.661137 C377.543175,152.66571 377.54409,152.670283 377.545005,152.674857 Z M380.639212,150.446351 C380.693175,150.099704 380.354761,149.895283 379.848511,150.055344 C378.958572,150.336594 378.063602,151.233393 377.298511,151.759308 C376.254456,152.476838 375.209486,153.194369 374.165431,153.912357 C374.155828,153.918759 374.151255,153.926991 374.14348,153.934765 C374.063907,153.946198 373.989364,154.009308 374.001255,154.113119 C374.033267,154.39757 374.38037,156.637509 374.700035,156.614643 C374.75537,156.610527 374.80659,156.565253 374.826712,156.515405 C374.828084,156.511747 374.829456,156.508088 374.830828,156.504887 C375.2447,156.238729 375.699273,156.091015 376.178084,156.02882 C376.293328,156.052601 376.869547,156.274399 377.101407,156.288119 C377.571986,156.316015 378.475645,155.493302 378.575797,155.34879 C378.925645,155.085832 379.083419,154.811899 379.015279,154.20321 C378.997444,154.042235 378.772901,153.384155 378.737688,153.093302 C378.702931,152.805192 378.517718,152.602143 378.43723,152.337357 C379.096224,151.933546 380.355675,150.933851 380.387688,150.900466 C380.440279,150.844216 380.669852,150.508088 380.639212,150.446351 Z" id="Fill-16" fill="#F6C8AD"></path>
                    <path d="M356.071827,155.007301 C356.068169,155.003185 356.065882,154.998154 356.061309,154.994953 C356.070913,154.970715 356.075029,154.972087 356.071827,155.007301 Z M361.177773,156.174831 C360.67198,154.222087 360.144693,152.274831 359.627925,150.325289 C359.627925,150.323917 359.629297,150.323002 359.62884,150.321173 C359.623809,150.280929 359.611004,150.240228 359.594541,150.201356 C359.590425,150.181691 359.576706,150.165228 359.57762,150.143734 C359.569846,150.085197 359.531888,150.060502 359.488901,150.049984 C359.409327,149.983673 359.305974,149.971783 359.201248,150.086112 C359.182041,150.107606 359.167407,150.136874 359.151401,150.16477 C358.582041,150.773459 357.950029,151.266447 357.194998,151.631843 C356.848352,151.800136 356.36634,151.865533 356.128535,152.202118 C356.031584,152.33977 356.078687,152.515837 356.044846,152.678185 C355.787834,153.910654 356.510852,154.914465 355.028687,155.781996 C354.98387,155.808063 354.93951,155.858825 354.953687,155.916447 C355.037376,156.259892 355.121065,156.603337 355.204754,156.946325 C355.189206,156.947697 355.175029,156.941752 355.158565,156.950898 C355.11512,156.974679 355.07076,156.990228 355.026858,157.008063 C355.010852,157.007148 354.99759,156.998459 354.980212,157.003947 C354.916645,157.022697 354.867254,157.023612 354.822895,157.017667 C354.769388,156.898307 354.710395,156.782148 354.645913,156.668276 C354.644998,156.663703 354.648199,156.660502 354.646827,156.656386 C354.617102,156.555319 354.578687,156.462484 354.533413,156.373307 C354.52884,156.362789 354.525181,156.35227 354.520608,156.341752 C354.524724,156.319343 354.523809,156.295563 354.509632,156.269039 C353.936157,155.15227 351.952315,154.342362 351.195913,155.760502 C350.31009,157.424222 352.64698,158.933825 353.839663,159.528337 C353.860242,159.538856 353.879449,159.542057 353.897742,159.541142 C353.899571,159.542057 353.901401,159.542514 353.902773,159.543429 C353.902773,159.544343 353.902315,159.544801 353.901858,159.545258 C353.905517,159.54663 353.90826,159.54663 353.911462,159.547545 C353.962224,159.575441 354.013901,159.593734 354.068779,159.604252 C354.255821,160.180472 354.419084,160.762636 354.54576,161.356234 C354.543474,161.369039 354.533413,161.37727 354.535242,161.392819 C354.583718,161.793886 354.666035,162.182606 354.775334,162.570411 C354.774419,162.579557 354.767102,162.585045 354.768474,162.595563 C354.785852,162.729557 354.802773,162.863551 354.819693,162.997545 C354.821065,163.008978 354.830212,163.012179 354.832956,163.021783 C354.837529,163.051508 354.842559,163.081234 354.847132,163.110502 C354.847132,163.111874 354.848504,163.112331 354.848962,163.113703 C354.813291,163.175441 354.821065,163.256843 354.907956,163.280167 C355.674876,163.48413 356.443626,163.537636 357.230212,163.432453 C357.313901,163.421478 357.343169,163.349222 357.330821,163.28474 C357.34637,163.281996 357.361462,163.279709 357.376553,163.276508 C357.379297,163.283825 357.381126,163.291142 357.38387,163.298459 C357.430974,163.431996 357.658718,163.369343 357.626248,163.228947 C357.57823,163.022697 357.519236,162.819191 357.468931,162.613398 C357.410852,162.223307 357.352315,161.833673 357.294236,161.443124 C358.948809,161.112026 360.676096,160.310807 361.347895,159.143734 C361.873352,158.230929 361.415577,157.091295 361.177773,156.174831 Z" id="Fill-17" fill="#F6C8AD"></path>
                    <path d="M375.898396,157.04632 C375.697634,156.079552 375.341384,155.188241 374.837878,154.344491 C374.84428,154.123149 374.65861,153.904095 374.420805,154.044034 C369.01486,157.233363 363.598396,160.405771 358.174158,163.564003 C357.321719,163.19129 356.305104,163.020253 355.052512,162.992814 C354.942756,162.990527 354.859067,163.036717 354.800073,163.103027 C354.755256,163.100284 354.708152,163.106229 354.657847,163.126351 C352.390012,164.024064 353.057695,167.176808 353.207238,169.138241 C353.509524,173.105467 355.145347,176.80379 355.34428,180.779247 C355.34428,180.780162 355.344738,180.780619 355.344738,180.781991 C355.186049,180.924674 355.160439,181.216442 355.418823,181.309735 C358.205713,182.319491 362.145043,182.04007 364.49611,180.146777 C364.667146,180.009125 364.629646,179.804247 364.511201,179.681229 C364.517604,179.648302 364.523091,179.615375 364.518061,179.576503 C364.054799,176.16446 363.284219,172.806381 362.147329,169.562631 C362.196719,169.483973 361.236354,167.166747 361.154494,166.972387 C361.090012,166.819643 361.023244,166.675131 360.956018,166.532906 C365.896415,163.592814 370.772329,160.548912 375.576902,157.39068 C375.760286,157.398912 375.946415,157.276351 375.898396,157.04632" id="Fill-18" fill="#007478"></path>
                    <path d="M357.192435,168.127763 C358.391978,167.497123 359.591978,166.866025 360.791521,166.235385 C360.93649,166.159471 360.807984,165.939501 360.663472,166.015873 C359.463472,166.646513 358.263472,167.277153 357.063929,167.908251 C356.918502,167.984166 357.047008,168.204135 357.192435,168.127763" id="Fill-19" fill="#115D5E"></path>
                    <path d="M333.368702,171.263816 C329.627391,167.098115 322.126019,169.070981 320.127086,174.013664 C318.981964,176.845371 318.989738,180.095066 319.002543,183.100097 C319.020379,187.360005 319.600714,191.499182 321.628001,195.293084 C321.689738,195.408328 321.849799,195.369456 321.877238,195.275706 C321.972818,195.29217 322.068397,195.30406 322.163519,195.316865 C322.248123,195.337902 322.338214,195.350706 322.433793,195.355737 C324.001476,195.518999 325.720531,195.580737 326.980897,194.589274 C329.184251,192.855584 328.933184,187.675097 329.000409,187.595524 C329.206202,187.454213 329.355745,182.032719 332.518549,176.43653 C334.367025,174.681804 334.72922,173.152993 333.368702,171.263816" id="Fill-20" fill="#482641"></path>
                    <path d="M335.411489,180.319047 C334.913928,178.31737 333.836032,174.157157 333.837404,174.135663 C333.762861,173.834748 333.417129,174.12423 333.400666,174.152584 C332.812099,174.769047 332.160879,175.266608 331.385269,175.632462 C331.028562,175.800754 330.297312,176.064169 330.198074,176.690693 C329.996855,177.962492 330.651733,178.982309 329.127038,179.853956 C329.080849,179.88048 329.035117,179.9317 329.048836,179.991151 C329.130239,180.339626 329.211641,180.688559 329.293044,181.037035 C329.27841,181.038864 328.949141,181.122096 328.903867,181.115236 C328.849904,180.993132 328.605239,180.373925 328.591519,180.346486 C328.016214,179.199078 325.995788,178.350297 325.208288,179.793132 C324.284964,181.485206 326.659355,183.052431 327.87216,183.673468 C327.893654,183.683986 328.050513,183.741151 328.105849,183.752584 C328.291519,184.343895 328.861336,187.315998 328.86591,187.346639 C328.86591,187.348011 328.926733,187.520419 328.926733,187.520419 C329.708745,187.737187 331.738318,187.640236 331.706763,187.496181 C331.65966,187.284901 331.441062,186.066151 331.385727,185.666456 C333.081001,185.344504 334.855391,184.543285 335.554629,183.357004 C336.101123,182.428651 335.644721,181.258376 335.411489,180.319047" id="Fill-21" fill="#F6C8AD"></path>
                    <path d="M335.946602,204.274226 C335.958035,204.241756 335.444011,196.590841 334.555901,191.548921 C333.614743,187.987335 332.015962,186.537183 328.80834,186.002122 C328.697212,185.983829 328.286084,186.089469 328.232121,186.102274 C325.805596,186.680323 326.17831,189.946024 326.043401,191.953189 C325.77084,196.012793 326.886237,199.994652 326.507578,204.047854 C326.507578,204.048768 326.508035,204.049683 326.508035,204.050597 C326.326481,204.172244 326.257883,204.463555 326.505749,204.595719 C329.179682,206.023921 333.207731,206.316604 335.863371,204.743433 C336.056816,204.628646 336.048584,204.415994 335.946602,204.274226" id="Fill-22" fill="#E15967"></path>
                    <path d="M310.202875,176.477771 C310.003485,176.333259 309.784887,176.243167 309.558972,176.187374 C309.544338,176.164966 309.535192,176.141185 309.519186,176.119234 C309.069186,175.513746 308.269338,175.225637 307.534887,175.402618 C307.341899,175.448807 307.15943,175.523807 306.991594,175.619844 C306.722692,174.882192 306.087936,174.270301 305.197997,174.143624 C305.157296,174.137679 305.116594,174.141338 305.075436,174.140423 C304.700893,173.996826 304.29571,173.975332 303.913393,174.075942 C303.349521,173.875179 302.83504,174.091033 302.487936,174.505362 C302.427113,174.471978 302.369033,174.437222 302.303637,174.408868 C300.836564,173.769539 299.198911,174.986917 299.009125,176.457649 C298.93504,176.45399 298.861411,176.446673 298.786411,176.449874 C297.298302,176.51207 296.533668,177.820454 296.520405,179.15399 C296.447692,179.166795 296.373607,179.175484 296.301808,179.190118 C295.322235,179.386307 294.824674,180.410698 295.259125,181.308411 C295.349216,181.494539 295.469491,181.660545 295.608972,181.806887 C295.595253,181.85582 295.576046,181.902009 295.565527,181.951856 C295.434735,182.12335 295.31629,182.306277 295.228942,182.510698 C294.773454,183.577618 295.044643,184.688442 295.629094,185.619082 C295.45943,186.088289 295.451655,186.619234 295.680771,187.19271 C296.173302,188.425637 297.664613,189.49896 298.981686,189.573045 C299.101503,189.579905 299.218119,189.569387 299.335192,189.561155 C299.234125,190.41771 299.60135,191.313594 300.52879,191.736612 C300.692052,191.811155 300.861259,191.855057 301.030924,191.883411 C301.710497,192.183411 302.506229,192.07274 303.241137,191.863289 C304.850893,191.404143 304.812479,189.299112 304.828485,189.267557 C305.147235,188.640576 305.763698,187.198198 306.380161,186.588137 C307.509277,185.502009 310.852265,180.644387 311.205771,180.0046 C311.726198,179.063899 311.121168,177.144996 310.202875,176.477771" id="Fill-23" fill="#1E1818"></path>
                    <path d="M311.411184,186.318741 C310.913623,184.317064 309.835727,180.157308 309.837099,180.135357 C309.763014,179.834899 309.416825,180.124381 309.400361,180.152277 C308.811794,180.769198 308.160575,181.266759 307.385422,181.632613 C307.028715,181.800905 306.297465,182.06432 306.19777,182.690387 C305.99655,183.962186 306.651886,184.98246 305.12719,185.854107 C305.080544,185.880174 305.03527,185.931851 305.048989,185.991302 C305.130392,186.339777 305.211794,186.688253 305.292739,187.037186 C305.278562,187.039015 304.948837,187.122247 304.903562,187.115387 C304.850056,186.992826 304.605392,186.373619 304.591672,186.346637 C304.01591,185.199229 301.995483,184.350448 301.20844,185.792826 C300.28466,187.485357 302.659508,189.052582 303.872312,189.673162 C303.893806,189.684137 304.050666,189.741302 304.106001,189.752735 C304.291215,190.344046 304.861489,193.316149 304.865605,193.34679 C304.866062,193.347704 304.926886,193.520113 304.926886,193.520113 C305.70844,193.737338 307.738014,193.640387 307.706459,193.496332 C307.659812,193.284594 307.441215,192.066302 307.38588,191.666607 C309.081154,191.344655 310.855087,190.543436 311.554325,189.356698 C312.101276,188.428802 311.644873,187.258527 311.411184,186.318741" id="Fill-24" fill="#E89D7C"></path>
                    <path d="M312.947044,211.274226 C312.95802,211.241756 312.444453,203.590384 311.555886,198.548463 C310.615184,194.987335 309.016404,193.536726 305.808325,193.002122 C305.697654,192.983829 305.286069,193.089469 305.232562,193.102274 C302.806038,193.680323 303.178751,196.946024 303.043386,198.953189 C302.770825,203.012793 303.886678,206.994652 303.50802,211.047854 C303.50802,211.048768 303.508477,211.049683 303.508477,211.050597 C303.326922,211.171787 303.258325,211.463555 303.506191,211.595719 C306.179666,213.023921 310.207715,213.316604 312.863355,211.742976 C313.0568,211.628189 313.049026,211.415994 312.947044,211.274226" id="Fill-25" fill="#4C3A5C"></path>
                    <polyline id="Fill-26" fill="#FFFFFE" points="408.758689 188 264 252.855793 292.99253 208.039634 408.758689 188"></polyline>
                </g>
                <rect id="Rectangle" fill="#494949" fill-rule="nonzero" x="323" y="0" width="13" height="83" rx="6.5"></rect>
            </g>
        </g>
    </g>
</svg>