<?xml version="1.0" encoding="UTF-8"?>
<svg width="480px" height="506px" viewBox="0 0 480 506" version="1.1" xmlns="http://www.w3.org/2000/svg" xmlns:xlink="http://www.w3.org/1999/xlink">
    <!-- Generator: Sketch 51.3 (57544) - http://www.bohemiancoding.com/sketch -->
    <title>Group 3</title>
    <desc>Created with Sketch.</desc>
    <defs></defs>
    <g id="Page-1" stroke="none" stroke-width="1" fill="none" fill-rule="evenodd">
        <g id="43913-copy-3" transform="translate(-138.000000, -417.000000)">
            <g id="Group-3" transform="translate(138.000000, 417.000000)">
                <rect id="Rectangle" fill="#494949" fill-rule="nonzero" x="227" y="0" width="13" height="83" rx="6.5"></rect>
                <g id="Group" transform="translate(0.000000, 115.000000)">
                    <path d="M295.217642,13.8123233 C295.217642,13.8123233 300.523684,4.33802309 302.038921,4.71638106 C303.555062,5.09564203 301.660564,9.64406467 301.660564,9.64406467 C301.660564,9.64406467 316.441808,13.0547044 316.820166,14.5708453 C317.199427,16.0869861 298.249021,18.360746 298.249021,18.360746 L295.217642,13.8123233" id="Fill-4" fill="#EC912D"></path>
                    <path d="M254.901298,38.5762587 C254.901298,38.5762587 284.203723,47.8076513 295.040654,12.886746 L300.259104,16.9005912 C300.259104,16.9005912 298.25173,55.4344088 257.711441,53.0261016 C257.310508,53.0026236 257.711441,54.6316397 257.711441,54.6316397 C257.711441,54.6316397 254.901298,48.2094873 254.901298,38.5762587" id="Fill-5" fill="#007C91"></path>
                    <path d="M262.394411,91.0262448 C262.394411,91.0262448 281.660868,165.418284 285.407425,179.868127 C285.407425,179.868127 293.970596,181.473665 294.506076,183.079203 C295.040654,184.684741 279.520753,185.220222 277.915215,184.149261 C276.309677,183.079203 247.944568,119.926834 240.451455,93.7027436 L262.394411,91.0262448" id="Fill-6" fill="#2E1C15"></path>
                    <path d="M224.409619,91.0262448 C224.409619,91.0262448 205.142259,165.418284 201.395702,179.868127 C201.395702,179.868127 192.833434,181.473665 192.297954,183.079203 C191.762473,184.684741 207.283277,185.220222 208.888815,184.149261 C210.494353,183.079203 238.859462,119.926834 246.351672,93.7027436 L224.409619,91.0262448" id="Fill-7" fill="#2E1C15"></path>
                    <path d="M228.677208,38.0425843 C228.677208,38.0425843 220.114037,80.3229584 221.719575,93.7027436 C221.719575,93.7027436 251.155644,99.5894157 266.675545,92.6317829 C266.675545,92.6317829 263.999949,54.6334457 257.042316,39.112642 C257.042316,39.112642 252.225702,33.22597 228.677208,38.0425843" id="Fill-8" fill="#00A1A0"></path>
                    <path d="M238.444081,30.1485381 L237.641312,37.3734596 C237.641312,37.3734596 250.48652,43.4795612 250.48652,37.7752956 C250.48652,36.5706905 248.479145,28.944836 248.479145,28.944836 L238.444081,30.1485381" id="Fill-9" fill="#EC912D"></path>
                    <path d="M254.473275,20.0610993 C254.473275,28.155612 255.328418,34.7168268 247.233905,34.7168268 C239.139393,34.7168268 232.577275,28.155612 232.577275,20.0610993 C232.577275,11.9665866 228.339485,5.40537182 247.233905,5.40537182 C255.328418,5.40537182 254.473275,11.9665866 254.473275,20.0610993" id="Fill-10" fill="#EC912D"></path>
                    <path d="M238.971434,10.6247252 C238.971434,10.6247252 250.612037,17.0468776 256.23142,8.61825404 C256.23142,8.61825404 249.006499,-1.41681062 238.570501,2.99796767 C228.1336,7.41364896 231.344677,11.4274942 231.344677,11.4274942 C231.344677,11.4274942 227.330831,13.4348684 228.535436,18.6524157 C229.739139,23.8708661 234.957589,27.8847113 234.957589,27.8847113 C234.957589,27.8847113 243.788048,19.8570208 237.365896,12.6320993 L238.971434,10.6247252" id="Fill-11" fill="#2E1C15"></path>
                    <path d="M252.217575,18.4519492 C252.217575,18.4519492 256.030954,23.2685635 256.431887,25.6768707 C256.633256,26.2791732 252.418042,26.2791732 252.418042,26.2791732 C252.418042,26.2791732 250.812503,21.8634919 252.217575,18.4519492" id="Fill-12" fill="#E3662A"></path>
                    <path d="M105.395721,384.841524 C105.395721,387.992099 81.9447506,390.54579 53.0170716,390.54579 C24.0884896,390.54579 0.63751963,387.992099 0.63751963,384.841524 C0.63751963,381.690949 24.0884896,379.136356 53.0170716,379.136356 C81.9447506,379.136356 105.395721,381.690949 105.395721,384.841524" id="Fill-13" fill="#F6C697"></path>
                    <path d="M479.494226,384.841524 C479.494226,387.992099 456.043256,390.54579 427.114674,390.54579 C398.186995,390.54579 374.736025,387.992099 374.736025,384.841524 C374.736025,381.690949 398.186995,379.136356 427.114674,379.136356 C456.043256,379.136356 479.494226,381.690949 479.494226,384.841524" id="Fill-14" fill="#F6C697"></path>
                    <path d="M373.914293,383.23418 C373.914293,386.892242 314.613229,389.856799 241.461012,389.856799 C168.309697,389.856799 109.008633,386.892242 109.008633,383.23418 C109.008633,379.577021 168.309697,376.611561 241.461012,376.611561 C314.613229,376.611561 373.914293,379.577021 373.914293,383.23418" id="Fill-15" fill="#F6C697"></path>
                    <path d="M328.280169,325.777046 C328.280169,319.362118 324.393647,313.705711 318.473564,310.320356 L368.861092,310.320356 L368.861092,258.591868 C365.594933,265.256025 359.59358,269.740335 352.70909,269.740335 C342.343527,269.740335 333.94109,259.607746 333.94109,247.108388 C333.94109,234.60903 342.343527,224.476441 352.70909,224.476441 C359.59358,224.476441 365.594933,228.960751 368.861092,235.624908 L368.861092,183.895517 L318.449182,183.895517 C324.383714,187.279067 328.280169,192.9436 328.280169,199.367559 C328.280169,209.732219 318.14758,218.134656 305.648222,218.134656 C293.149767,218.134656 283.017178,209.732219 283.017178,199.367559 C283.017178,192.9436 286.913633,187.279067 292.848164,183.895517 L242.436254,183.895517 L242.436254,310.320356 L292.82288,310.320356 C286.902797,313.705711 283.017178,319.362118 283.017178,325.776143 C283.017178,336.141707 293.149767,344.544143 305.648222,344.544143 C318.14758,344.544143 328.280169,336.141707 328.280169,325.777046" id="Fill-16" fill="#ED9C30"></path>
                    <path d="M353.807141,153.880624 C354.759808,147.537935 351.757326,141.366818 346.405231,137.139864 L396.232898,144.623044 L403.716079,94.7944734 C406.183984,101.15161 411.201065,105.83458 417.544656,106.787247 C427.794635,108.326866 437.608464,99.5541986 439.465037,87.193903 C441.320707,74.8336074 434.516584,63.5650416 424.265702,62.0263256 C417.923014,61.0736582 411.751896,64.0761409 407.524942,69.4282356 L415.008122,19.5996651 L289.984744,0.825344111 L282.502467,50.6539145 C280.033658,44.2967783 275.01748,39.6138083 268.673889,38.6611409 C258.42391,37.1215219 248.610081,45.8941894 246.753508,58.254485 C244.896935,70.6147806 251.701961,81.8824434 261.95194,83.4220624 C268.295531,84.3747298 274.466649,81.3722471 278.6927,76.0201524 L271.210423,125.848723 L321.03809,133.331 C314.680954,135.798905 309.998887,140.815986 309.046219,147.159577 C307.5066,157.409557 316.279268,167.223386 328.639564,169.079958 C340.999859,170.935628 352.267522,164.131506 353.807141,153.880624" id="Fill-17" fill="#A13C2B"></path>
                    <path d="M226.980467,143.330848 C216.614903,143.330848 208.212467,133.198259 208.212467,120.698901 C208.212467,108.200446 216.614903,98.0678568 226.980467,98.0678568 C233.39088,98.0678568 239.043674,101.948961 242.429933,107.862723 L242.429933,57.486933 L191.654113,57.486933 C197.596771,54.1042864 201.498644,48.4352379 201.498644,42.0067644 C201.498644,31.6421039 191.366055,23.2396674 178.866697,23.2396674 C166.368242,23.2396674 156.235654,31.6421039 156.235654,42.0067644 C156.235654,48.4352379 160.137527,54.1042864 166.079282,57.486933 L116.005095,57.486933 L116.005095,109.21542 C119.270351,102.551263 125.272607,98.0678568 132.157097,98.0678568 C142.521758,98.0678568 150.924194,108.200446 150.924194,120.698901 C150.924194,133.198259 142.521758,143.330848 132.157097,143.330848 C125.272607,143.330848 119.270351,138.846538 116.005095,132.182381 L116.005095,183.911771 L242.429933,183.911771 L242.429933,133.535079 C239.043674,139.448841 233.39088,143.330848 226.980467,143.330848" id="Fill-18" fill="#DD4531"></path>
                    <path d="M201.849009,294.169256 C201.849009,301.052843 197.365603,307.055099 190.700543,310.320356 L242.429933,310.320356 L242.429933,259.93373 C245.814386,265.853813 251.471695,269.739432 257.885721,269.740335 C268.250381,269.740335 276.653721,259.607746 276.653721,247.108388 C276.653721,234.60903 268.250381,224.476441 257.885721,224.476441 C251.471695,224.476441 245.814386,228.362963 242.429933,234.283046 L242.429933,183.895517 L192.078524,183.895517 C197.977838,180.508356 201.849009,174.862785 201.849009,168.462305 C201.849009,158.096741 191.71642,149.694305 179.217062,149.694305 C166.718607,149.694305 156.586018,158.096741 156.586018,168.462305 C156.586018,174.862785 160.457189,180.508356 166.356503,183.895517 L116.005095,183.895517 L116.005095,236.340085 C112.829236,229.274995 106.627416,224.476441 99.4946005,224.476441 C89.129037,224.476441 80.7266005,234.60903 80.7266005,247.108388 C80.7266005,259.607746 89.129037,269.740335 99.4946005,269.740335 C106.627416,269.740335 112.829236,264.941781 116.005095,257.876691 L116.005095,310.320356 L167.733582,310.320356 C161.069425,307.055099 156.586018,301.052843 156.586018,294.169256 C156.586018,283.803693 166.718607,275.401256 179.217062,275.401256 C191.71642,275.401256 201.849009,283.803693 201.849009,294.169256" id="Fill-19" fill="#A13C2B"></path>
                    <path d="M72.6501478,229.040215 C72.6501478,237.134727 73.505291,243.696845 65.4107783,243.696845 C57.3162656,243.696845 50.7550508,237.134727 50.7550508,229.040215 C50.7550508,220.946605 46.517261,214.384487 65.4107783,214.384487 C73.505291,214.384487 72.6501478,220.946605 72.6501478,229.040215" id="Fill-20" fill="#EC912D"></path>
                    <path d="M55.5427691,236.863827 L49.9233857,241.279508 C49.9233857,241.279508 57.5501432,248.50443 60.3593834,248.103497 C61.9649215,247.701661 64.7750647,241.279508 64.7750647,241.279508 L55.5427691,236.863827" id="Fill-21" fill="#EC912D"></path>
                    <path d="M111.446739,282.350762 C111.446739,282.350762 114.017587,285.539263 115.251991,283.687206 C116.486395,281.836051 116.177568,267.950584 115.251991,267.950584 C114.326413,267.950584 112.783182,277.516088 110.932028,278.441665 C109.080873,279.367242 111.446739,282.350762 111.446739,282.350762" id="Fill-22" fill="#EC912D"></path>
                    <path d="M55.2754804,251.84915 C55.2754804,251.84915 75.077418,281.819797 110.93564,277.003182 L110.400159,282.890758 C110.400159,282.890758 74.5419376,296.80512 45.6422517,265.764416 C45.6422517,265.764416 38.6846189,259.342263 43.5012333,251.314573 C48.3178476,243.285979 55.2754804,251.84915 55.2754804,251.84915" id="Fill-23" fill="#006D80"></path>
                    <path d="M21.8264688,271.383799 C21.8264688,271.383799 -1.45473672,306.70654 23.4320069,332.396053 C23.4320069,332.396053 11.3895681,368.520661 11.3895681,379.76033 L17.0089515,379.76033 C17.0089515,379.76033 39.487388,337.212667 41.0929261,332.396053 C42.6984642,327.578536 29.0513903,300.284388 35.4735427,285.833642 L21.8264688,271.383799" id="Fill-24" fill="#2E1C15"></path>
                    <path d="M19.947321,288.972478 C19.947321,288.972478 23.4320069,325.572065 59.5566143,332.796986 C59.5566143,332.796986 69.3252933,364.81203 76.2937621,373.629848 L80.7022194,370.145162 C80.7022194,370.145162 74.6214018,329.66718 72.8948614,324.893007 C71.167418,320.117931 43.5364503,307.166169 39.6147113,291.847637 L19.947321,288.972478" id="Fill-25" fill="#2E1C15"></path>
                    <path d="M50.6945497,239.199894 C50.6945497,239.199894 24.5264457,251.873531 9.6187806,289.149467 C9.6187806,289.149467 33.8192425,307.980677 48.4514919,305.056755 C48.4514919,305.056755 46.5931132,271.974363 62.0209076,246.908824 C62.0209076,246.908824 52.5222263,243.890991 50.6945497,239.199894" id="Fill-26" fill="#00A1A0"></path>
                    <path d="M93.8092979,266.834473 C93.8092979,266.834473 97.5558545,260.145032 98.6259122,260.412321 C99.69597,260.67961 98.3586236,263.891589 98.3586236,263.891589 C98.3586236,263.891589 108.794621,266.299896 109.06191,267.369954 C109.330102,268.440012 95.9503164,270.04555 95.9503164,270.04555 L93.8092979,266.834473" id="Fill-27" fill="#EC912D"></path>
                    <path d="M39.7546767,252.920111 C39.7546767,252.920111 53.1344619,277.003182 61.6976328,283.960815 C70.2608037,290.918448 95.9503164,270.04555 95.9503164,270.04555 L93.8092979,265.764416 L70.7962841,272.186568 L54.2054226,246.497055 C54.2054226,246.497055 48.3178476,240.074903 42.4311755,243.285979 C36.5436005,246.497055 39.7546767,252.920111 39.7546767,252.920111" id="Fill-28" fill="#007C91"></path>
                    <path d="M17.0089515,379.76033 C17.0089515,379.76033 20.2200277,384.576945 23.83294,385.379714 C25.4384781,386.985252 13.7978753,386.182483 10.9886351,384.175109 C9.383097,382.971406 11.3895681,379.76033 11.3895681,379.76033 L17.0089515,379.76033" id="Fill-29" fill="#2E1C15"></path>
                    <path d="M79.9816236,369.279182 C79.9816236,369.279182 85.6506721,370.450376 88.7849931,368.483637 C91.0560439,368.498085 82.2093303,376.104977 78.7995935,376.651293 C76.8111824,376.923097 75.9831293,373.228012 75.9831293,373.228012 L79.9816236,369.279182" id="Fill-30" fill="#2E1C15"></path>
                    <path d="M57.1483072,219.603841 C57.1483072,219.603841 68.7889099,226.026896 74.4082933,217.59737 C74.4082933,217.59737 67.1833718,207.562305 56.7473741,211.977986 C46.3113764,216.392764 49.5224527,220.40661 49.5224527,220.40661 C49.5224527,220.40661 45.5086074,222.413984 46.7123095,227.632434 C47.9169145,232.849982 53.1344619,236.863827 53.1344619,236.863827 C53.1344619,236.863827 61.9649215,228.836136 55.5427691,221.611215 L57.1483072,219.603841" id="Fill-31" fill="#2E1C15"></path>
                    <path d="M70.394448,227.431065 C70.394448,227.431065 74.2078268,232.247679 74.6096628,234.655986 C74.8101293,235.258289 70.5949145,235.258289 70.5949145,235.258289 C70.5949145,235.258289 68.9893764,230.84351 70.394448,227.431065" id="Fill-32" fill="#E3662A"></path>
                    <path d="M358.958769,227.543037 C358.958769,227.543037 354.906998,228.143533 355.254654,225.945626 C355.602309,223.748621 365.240956,213.748774 365.92182,214.37636 C366.602684,215.003947 361.252395,223.082206 361.986536,225.018242 C362.719774,226.953376 358.958769,227.543037 358.958769,227.543037" id="Fill-33" fill="#EC912D"></path>
                    <path d="M421.555792,243.885573 C421.555792,243.885573 386.55452,251.962928 363.884647,223.765778 L360.216651,228.401792 C360.216651,228.401792 376.616979,263.192665 418.95063,260.608273 C418.95063,260.608273 428.417707,260.747335 430.458492,251.609855 C432.498374,242.473277 421.555792,243.885573 421.555792,243.885573" id="Fill-34" fill="#006D80"></path>
                    <path d="M413.050413,293.326755 C413.050413,293.326755 416.26149,329.719554 423.219122,345.240358 C430.176755,360.761162 435.52885,377.352023 435.52885,377.352023 L429.641275,381.633157 C429.641275,381.633157 439.809984,382.168637 443.02106,380.027619 C444.626598,376.816543 438.739926,324.90294 439.274503,314.198751 C439.809984,303.495464 438.739926,288.510141 438.739926,288.510141 C438.739926,288.510141 422.149065,284.763584 413.050413,293.326755" id="Fill-35" fill="#2E1C15"></path>
                    <path d="M376.580859,375.145988 C379.144483,376.166381 382.855822,375.067427 384.222968,374.593351 C384.059524,369.360453 383.075252,336.918289 383.789527,332.643476 C384.567012,327.990305 407.646848,311.517737 408.660016,296.860203 L426.151171,290.933799 C426.151171,290.933799 429.1076,324.96615 397.304762,337.628952 C397.304762,337.628952 393.852584,367.623979 389.073896,377.332157 L389.076605,377.333963 C389.076605,377.333963 388.939349,380.849351 387.076455,380.935136 C383.868991,381.008279 374.507566,375.539697 376.580859,375.145988" id="Fill-36" fill="#2E1C15"></path>
                    <path d="M412.883358,222.413984 C412.883358,230.508497 412.029118,237.069711 420.12363,237.069711 C428.218143,237.069711 434.779358,230.508497 434.779358,222.413984 C434.779358,214.319471 439.017148,207.758256 420.12363,207.758256 C412.029118,207.758256 412.883358,214.319471 412.883358,222.413984" id="Fill-37" fill="#EC912D"></path>
                    <path d="M428.385199,212.97761 C428.385199,212.97761 416.745499,219.399762 411.126115,210.970236 C411.126115,210.970236 418.351037,200.936074 428.787035,205.350852 C439.223032,209.766533 436.011956,213.780379 436.011956,213.780379 C436.011956,213.780379 440.025801,215.787753 438.822099,221.0053 C437.617494,226.223751 432.399947,230.237596 432.399947,230.237596 C432.399947,230.237596 423.568584,222.209905 429.99164,214.984984 L428.385199,212.97761" id="Fill-38" fill="#2E1C15"></path>
                    <path d="M415.139961,220.804834 C415.139961,220.804834 411.326582,225.621448 410.924746,228.029755 C410.724279,228.632058 414.938591,228.632058 414.938591,228.632058 C414.938591,228.632058 416.544129,224.216376 415.139961,220.804834" id="Fill-39" fill="#E3662A"></path>
                    <path d="M418.134316,236.061058 L417.33245,241.145864 C417.33245,241.145864 424.824661,241.413152 426.965679,238.469365 L426.697487,232.582693 L418.134316,236.061058" id="Fill-40" fill="#EC912D"></path>
                    <path d="M416.79697,239.807614 C416.79697,239.807614 408.233799,284.763584 406.628261,299.213427 C406.628261,299.213427 427.500256,309.382136 440.345464,295.467774 C440.345464,295.467774 442.218291,253.72288 427.232968,236.596538 C427.232968,236.596538 419.740758,240.074903 416.79697,239.807614" id="Fill-41" fill="#00A1A0"></path>
                    <path d="M375.36903,267.131561 C375.36903,267.131561 371.725416,260.385231 370.650843,260.636266 C369.57627,260.8873 370.865758,264.119145 370.865758,264.119145 C370.865758,264.119145 360.39364,266.367621 360.110097,267.434067 C359.825651,268.49961 373.179249,270.309226 373.179249,270.309226 L375.36903,267.131561" id="Fill-42" fill="#EC912D"></path>
                    <path d="M429.629536,254.042543 C429.629536,254.042543 415.884035,277.918827 407.215212,284.745524 C398.547293,291.571319 373.179249,270.309226 373.179249,270.309226 L375.385284,266.061503 L398.298065,272.834021 L415.279023,247.400961 C415.279023,247.400961 421.263219,241.069109 427.100226,244.369582 C432.938136,247.670055 429.629536,254.042543 429.629536,254.042543" id="Fill-43" fill="#007C91"></path>
                    <path d="M279.849446,59.7742379 C279.849446,59.7742379 280.078808,56.0060092 280.772314,55.2574203 C281.464917,54.5088314 283.707975,51.3113002 283.899411,52.399418 C284.089945,53.4875358 283.233898,55.1878891 283.233898,55.1878891 C283.233898,55.1878891 288.537231,51.9479169 289.816785,52.8445982 C291.095436,53.7421824 286.895573,60.4505866 285.754178,61.8385012 C284.61188,63.2264157 282.279425,63.751963 282.279425,63.751963 L279.849446,59.7742379" id="Fill-44" fill="#EC912D"></path>
                    <path d="M226.276125,46.5922102 C226.276125,46.5922102 239.65591,70.6752818 248.219081,77.6329145 C256.782252,84.5905473 282.470861,63.718552 282.470861,63.718552 L280.330746,59.436515 L257.317732,65.8586674 L240.725968,40.1700577 C240.725968,40.1700577 234.839296,33.7479053 228.952624,36.9589815 C223.065048,40.1700577 226.276125,46.5922102 226.276125,46.5922102" id="Fill-45" fill="#007C91"></path>
                </g>
            </g>
        </g>
    </g>
</svg>